<svg width="80" height="90" viewBox="0 0 80 90" fill="none" xmlns="http://www.w3.org/2000/svg">
<path d="M12.625 90C10.625 90 8.875 89.25 7.375 87.75C5.875 86.25 5.125 84.5 5.125 82.5V11.25H3.75C2.66667 11.25 1.77083 10.8958 1.0625 10.1875C0.354167 9.47917 0 8.58333 0 7.5C0 6.41667 0.354167 5.52083 1.0625 4.8125C1.77083 4.10417 2.66667 3.75 3.75 3.75H23.5C23.5 2.66667 23.8542 1.77083 24.5625 1.0625C25.2708 0.354167 26.1667 0 27.25 0H52.75C53.8333 0 54.7292 0.354167 55.4375 1.0625C56.1458 1.77083 56.5 2.66667 56.5 3.75H76.25C77.3333 3.75 78.2292 4.10417 78.9375 4.8125C79.6458 5.52083 80 6.41667 80 7.5C80 8.58333 79.6458 9.47917 78.9375 10.1875C78.2292 10.8958 77.3333 11.25 76.25 11.25H74.875V82.5C74.875 84.5 74.125 86.25 72.625 87.75C71.125 89.25 69.375 90 67.375 90H12.625ZM12.625 11.25V82.5H67.375V11.25H12.625ZM25.875 68C25.875 69.0833 26.2292 69.9792 26.9375 70.6875C27.6458 71.3958 28.5417 71.75 29.625 71.75C30.7083 71.75 31.6042 71.3958 32.3125 70.6875C33.0208 69.9792 33.375 69.0833 33.375 68V25.625C33.375 24.5417 33.0208 23.6458 32.3125 22.9375C31.6042 22.2292 30.7083 21.875 29.625 21.875C28.5417 21.875 27.6458 22.2292 26.9375 22.9375C26.2292 23.6458 25.875 24.5417 25.875 25.625V68ZM46.625 68C46.625 69.0833 46.9792 69.9792 47.6875 70.6875C48.3958 71.3958 49.2917 71.75 50.375 71.75C51.4583 71.75 52.3542 71.3958 53.0625 70.6875C53.7708 69.9792 54.125 69.0833 54.125 68V25.625C54.125 24.5417 53.7708 23.6458 53.0625 22.9375C52.3542 22.2292 51.4583 21.875 50.375 21.875C49.2917 21.875 48.3958 22.2292 47.6875 22.9375C46.9792 23.6458 46.625 24.5417 46.625 25.625V68ZM12.625 11.25V82.5V11.25Z" fill="#7A75D1"/>
</svg>
