<svg width="92" height="92" viewBox="0 0 92 92" fill="none" xmlns="http://www.w3.org/2000/svg">
<path d="M7.5 84.5H13L73.625 23.875L70.875 21.125L68.125 18.375L7.5 79V84.5ZM0 92V76L73.5 2.5C74.9167 1.08333 76.6875 0.395834 78.8125 0.4375C80.9375 0.479167 82.7083 1.20833 84.125 2.625L89.5 8C90.9167 9.41667 91.625 11.1667 91.625 13.25C91.625 15.3333 90.9167 17.0833 89.5 18.5L16 92H0ZM83.75 13.125L78.625 8L83.75 13.125ZM73.625 23.875L70.875 21.125L68.125 18.375L73.625 23.875Z" fill="#7A75D1"/>
</svg>
