<svg width="94" height="94" viewBox="0 0 94 94" fill="none" xmlns="http://www.w3.org/2000/svg">
<path d="M47 27.4167C57.81 27.4167 66.5833 36.19 66.5833 47C66.5833 49.5458 66.0742 51.935 65.1733 54.1675L76.61 65.6042C82.5242 60.6692 87.185 54.285 90.0442 47C83.2683 29.8058 66.5442 17.625 46.9608 17.625C41.4775 17.625 36.2292 18.6042 31.3725 20.3667L39.8325 28.8267C42.065 27.9258 44.4542 27.4167 47 27.4167ZM7.83333 16.7242L16.7633 25.6542L18.565 27.4558C12.0633 32.5083 6.97166 39.245 3.91666 47C10.6925 64.1942 27.4167 76.375 47 76.375C53.0708 76.375 58.8675 75.2 64.155 73.085L65.8 74.73L77.2758 86.1667L82.25 81.1925L12.8075 11.75L7.83333 16.7242ZM29.4925 38.3833L35.5633 44.4542C35.3675 45.2767 35.25 46.1383 35.25 47C35.25 53.5017 40.4983 58.75 47 58.75C47.8617 58.75 48.7233 58.6325 49.5458 58.4367L55.6167 64.5075C52.9925 65.8 50.0942 66.5833 47 66.5833C36.19 66.5833 27.4167 57.81 27.4167 47C27.4167 43.9058 28.2 41.0075 29.4925 38.3833V38.3833ZM46.3733 35.3283L58.7108 47.6658L58.7892 47.0392C58.7892 40.5375 53.5408 35.2892 47.0392 35.2892L46.3733 35.3283Z" fill="#B5B3E6"/>
</svg>
