<svg width="94" height="94" viewBox="0 0 94 94" fill="none" xmlns="http://www.w3.org/2000/svg">
<path d="M47 15.6667C28.6308 15.6667 12.7683 26.3984 5.2875 41.9084C4.3475 43.8667 4.3475 46.2167 5.2875 48.175C12.7683 63.685 28.6308 74.4167 47 74.4167C65.3692 74.4167 81.2317 63.685 88.7125 48.175C89.6525 46.2167 89.6525 43.8667 88.7125 41.9084C81.2317 26.3984 65.3692 15.6667 47 15.6667ZM47 62.6667C37.2867 62.6667 29.375 54.755 29.375 45.0417C29.375 35.3284 37.2867 27.4167 47 27.4167C56.7133 27.4167 64.625 35.3284 64.625 45.0417C64.625 54.755 56.7133 62.6667 47 62.6667Z" fill="#B5B3E6"/>
<path d="M47 55.6167C52.8404 55.6167 57.575 50.8821 57.575 45.0417C57.575 39.2013 52.8404 34.4667 47 34.4667C41.1596 34.4667 36.425 39.2013 36.425 45.0417C36.425 50.8821 41.1596 55.6167 47 55.6167Z" fill="#B5B3E6"/>
</svg>
