<svg width="120" height="120" viewBox="0 0 120 120" fill="none" xmlns="http://www.w3.org/2000/svg">
<path d="M98.25 45.2L74.05 43.1L64.6 20.85C62.9 16.8 57.1 16.8 55.4 20.85L45.95 43.15L21.8 45.2C17.4 45.55 15.6 51.05 18.95 53.95L37.3 69.85L31.8 93.45C30.8 97.75 35.45 101.15 39.25 98.85L60 86.35L80.75 98.9C84.55 101.2 89.2 97.8 88.2 93.5L82.7 69.85L101.05 53.95C104.4 51.05 102.65 45.55 98.25 45.2V45.2ZM60 77L41.2 88.35L46.2 66.95L29.6 52.55L51.5 50.65L60 30.5L68.55 50.7L90.45 52.6L73.85 67L78.85 88.4L60 77Z" fill="#7A75D1"/>
</svg>
