<svg width="120" height="120" viewBox="0 0 120 120" fill="none" xmlns="http://www.w3.org/2000/svg">
<path d="M74.95 15H30C26 15 22.4 17.4 20.85 21.05L4.55 59.1C0.300001 69 7.55 80 18.3 80H46.55L41.8 102.9C41.3 105.4 42.05 107.95 43.85 109.75C45.3 111.2 47.2 111.9 49.1 111.9C51 111.9 52.95 111.15 54.4 109.7L82.05 82C83.9 80.15 84.95 77.6 84.95 74.95V25C84.95 19.5 80.45 15 74.95 15ZM53.3 96.65L56.35 82.05L58.85 70H46.55H18.3C15.95 70 14.7 68.6 14.15 67.75C13.6 66.9 12.8 65.2 13.75 63L30 25H74.95V74.95L53.3 96.65Z" fill="#7A75D1"/>
<path d="M105 15C99.5 15 95 19.5 95 25V65C95 70.5 99.5 75 105 75C110.5 75 115 70.5 115 65V25C115 19.5 110.5 15 105 15Z" fill="#7A75D1"/>
</svg>
