<svg width="120" height="120" viewBox="0 0 120 120" fill="none" xmlns="http://www.w3.org/2000/svg">
<path d="M45.05 105L90 105C94 105 97.6 102.6 99.15 98.95L115.45 60.9C119.7 51 112.45 40 101.7 40H73.45L78.2 17.1C78.7 14.6 77.95 12.05 76.15 10.25C74.7 8.8 72.8 8.10001 70.9 8.10001C69 8.10001 67.05 8.85 65.6 10.3L37.95 38C36.1 39.85 35.05 42.4 35.05 45.05V95C35.05 100.5 39.55 105 45.05 105ZM66.7 23.35L63.65 37.95L61.15 50H73.45L101.7 50C104.05 50 105.3 51.4 105.85 52.25C106.4 53.1 107.2 54.8 106.25 57L90 95H45.05V45.05L66.7 23.35Z" fill="#7A75D1"/>
<path d="M15 105C20.5 105 25 100.5 25 95L25 55C25 49.5 20.5 45 15 45C9.50003 45 5.00002 49.5 5.00002 55L5.00002 95C5.00002 100.5 9.50003 105 15 105Z" fill="#7A75D1"/>
</svg>
