<svg width="248" height="76" viewBox="0 0 248 76" fill="none" xmlns="http://www.w3.org/2000/svg">
<path d="M141.918 47.7627C145.989 45.7696 148.517 42.3478 148.517 37.3982V37.2985C148.517 33.8104 147.467 31.2859 145.464 29.2594C143.133 26.8677 139.325 25.3727 133.382 25.3727H117V56.1007H128.195V49.6229H130.592L141.196 66H154L141.918 47.7627ZM137.355 38.2288C137.355 40.3216 135.713 41.5175 133.054 41.5175H128.195V34.8737H133.087C135.681 34.8737 137.355 35.9366 137.355 38.1291V38.2288Z" fill="white"/>
<path d="M229.557 24.3818C221.568 24.3818 214.977 28.9691 212.28 35.4985C211.981 32.8196 210.982 30.7436 209.251 29.0359C206.854 26.6252 203.026 25.1183 197 25.1183H180.389V52.6088L168.871 24.8841H157.586L147 50.3317L150.828 56.0909H191.741V49.5616H194.171L198.465 56.0909H211.348L205.622 47.6866C207.952 46.548 209.75 44.9743 210.915 42.9319C211.082 48.2891 213.612 52.9769 217.573 56.0909H241.208C245.403 52.843 248 47.8539 248 42.2286V42.1281C248.066 32.2171 240.043 24.3818 229.557 24.3818ZM159.65 47.6531L163.145 38.3444L166.607 47.6531H159.65ZM201.028 38.0765C201.028 40.1863 199.364 41.3916 196.668 41.3916H191.774V34.6949H196.734C199.364 34.6949 201.062 35.7663 201.062 37.9763V38.0765H201.028ZM236.615 42.3291C236.615 46.3473 233.885 49.9633 229.557 49.9633C225.196 49.9633 222.4 46.3136 222.4 42.2286V42.1281C222.4 38.1102 225.13 34.4939 229.457 34.4939C233.818 34.4939 236.615 38.1436 236.615 42.2286V42.3291Z" fill="white"/>
<path d="M52.028 48.4148C52.028 48.4148 68.3583 41.1456 78.8061 36.478C78.8061 36.478 79.5283 36.0267 80.2944 36.4623C81.0602 36.8976 80.9988 37.6322 80.9988 37.6322V56.4057C80.9988 56.7471 80.8557 57.0887 80.5696 57.3619C76.8499 60.9818 72.5579 63.8503 67.7651 65.831C62.8295 67.9481 57.5359 68.9727 52.0995 68.9727C46.6628 68.9727 41.3695 67.88 36.4336 65.831C34.86 65.1481 33.2863 64.3967 31.7842 63.5086C31.0688 63.1673 30.8542 62.2793 31.2834 61.6648C31.6411 60.9818 32.5709 60.7767 33.2148 61.1865C34.5738 61.9379 36.0047 62.6891 37.5068 63.3039C42.085 65.2162 47.0206 66.1724 52.028 66.1724C57.0351 66.1724 61.971 65.2162 66.6207 63.3039C70.8412 61.5282 74.7039 59.001 78.0659 55.7909V39.7406L52.6719 51.1467C52.4572 51.2148 52.2426 51.2833 52.028 51.2833C51.8134 51.2833 51.5987 51.2148 51.3841 51.1467L31.8558 42.4043C31.1403 42.0627 30.7826 41.2431 31.1403 40.5602C31.498 39.8772 32.3563 39.5358 33.0717 39.8772L52.028 48.4148Z" fill="white"/>
<path d="M104.218 24.3712L52.6403 0.755449C52.2844 0.548151 51.7866 0.548151 51.431 0.755449L-0.217444 24.3712C-0.715442 24.5785 -1 25.062 -1 25.6142C-1 26.1667 -0.715442 26.6501 -0.217444 26.8572L17.2831 34.8675C17.9946 35.2127 18.8484 34.8675 19.204 34.1768C19.5598 33.4863 19.2039 32.6577 18.4928 32.3125L3.6954 25.5454L52.0001 3.58661L100.234 25.6142L84.8671 32.6577C84.1556 33.0029 83.871 33.8315 84.1556 34.522C84.3692 35.0054 84.9383 35.2818 85.4362 35.2818C85.6495 35.2818 85.8631 35.2127 86.0764 35.1436L104.218 26.8572C104.715 26.6501 105 26.1667 105 25.6142C105 25.062 104.715 24.5785 104.218 24.3712Z" fill="white"/>
<path d="M52.8471 23.1789C53.2023 23.8772 52.918 24.7155 52.2074 25.0648L25.8424 37.7758V74.5124C25.8424 75.2807 25.203 75.9091 24.4214 75.9091C23.6395 75.9091 23 75.2807 23 74.5124V36.381C23 36.381 22.9992 36.1452 23.217 35.9951C23.4348 35.845 23.5001 35.8236 23.5001 35.8236L50.9284 22.5504C51.6388 22.2011 52.4916 22.4805 52.8471 23.1789Z" fill="white"/>
<path d="M160.512 64.5137H157.471L156.842 66H156L158.591 60.0546H159.401L162 66H161.142L160.512 64.5137ZM160.226 63.8342L158.992 60.9211L157.757 63.8342H160.226Z" fill="white"/>
<path d="M172.485 66C171.826 66 171.229 65.8729 170.695 65.6182C170.168 65.3578 169.754 65.0036 169.452 64.5553C169.151 64.1012 169 63.592 169 63.0273C169 62.4626 169.151 61.9561 169.452 61.5076C169.754 61.0538 170.171 60.6995 170.705 60.4446C171.239 60.1845 171.835 60.0546 172.494 60.0546C173.01 60.0546 173.48 60.1321 173.907 60.2871C174.334 60.4364 174.699 60.6606 175 60.9597L174.388 61.4827C173.892 61.0234 173.273 60.7936 172.532 60.7936C172.042 60.7936 171.6 60.8904 171.204 61.0841C170.809 61.278 170.498 61.5464 170.272 61.8896C170.052 62.2273 169.942 62.6066 169.942 63.0273C169.942 63.448 170.052 63.8301 170.272 64.1732C170.498 64.5109 170.809 64.7766 171.204 64.9705C171.6 65.1641 172.042 65.261 172.532 65.261C173.267 65.261 173.886 65.0284 174.388 64.5636L175 65.0866C174.699 65.3857 174.331 65.6127 173.898 65.7675C173.471 65.9225 173 66 172.485 66Z" fill="white"/>
<path d="M186.512 64.5137H183.471L182.842 66H182L184.591 60.0546H185.401L188 66H187.142L186.512 64.5137ZM186.226 63.8342L184.992 60.9211L183.757 63.8342H186.226Z" fill="white"/>
<path d="M195 60.0546H197.63C198.29 60.0546 198.875 60.1793 199.386 60.4284C199.898 60.6776 200.293 61.0286 200.572 61.4817C200.857 61.9289 201 62.4441 201 63.0273C201 63.6105 200.857 64.1285 200.572 64.5817C200.293 65.0289 199.898 65.377 199.386 65.6262C198.875 65.8753 198.29 66 197.63 66H195V60.0546ZM197.576 65.2611C198.082 65.2611 198.524 65.1677 198.905 64.9806C199.291 64.7938 199.589 64.5334 199.796 64.1993C200.004 63.8596 200.108 63.4689 200.108 63.0273C200.108 62.5857 200.004 62.1978 199.796 61.8637C199.589 61.524 199.291 61.2608 198.905 61.074C198.524 60.8869 198.082 60.7935 197.576 60.7935H195.892V65.2611H197.576Z" fill="white"/>
<path d="M213 65.2611V66H209V60.0546H212.89V60.7935H209.787V62.6196H212.551V63.3416H209.787V65.2611H213Z" fill="white"/>
<path d="M227.098 66L227.088 61.6685L224.711 65.278H224.279L221.902 61.6939V66H221V60.0546H221.771L224.514 64.2332L227.22 60.0546H227.991L228 66H227.098Z" fill="white"/>
<path d="M238.454 63.9446V66H237.547V63.9276L235 60.0546H235.98L238.032 63.1887L240.093 60.0546H241L238.454 63.9446Z" fill="white"/>
</svg>
