<svg width="756" height="251" viewBox="0 0 756 251" fill="none" xmlns="http://www.w3.org/2000/svg">
<path d="M435.446 220.33V197.747H443.31C445.136 197.747 446.628 198.067 447.787 198.706C448.954 199.339 449.818 200.195 450.378 201.276C450.939 202.356 451.219 203.562 451.219 204.892C451.219 206.223 450.939 207.432 450.378 208.52C449.825 209.608 448.969 210.476 447.81 211.123C446.651 211.762 445.166 212.082 443.355 212.082H437.719V209.656H443.265C444.515 209.656 445.518 209.447 446.276 209.028C447.033 208.609 447.583 208.042 447.924 207.329C448.272 206.609 448.446 205.797 448.446 204.892C448.446 203.988 448.272 203.18 447.924 202.467C447.583 201.753 447.03 201.195 446.265 200.79C445.499 200.379 444.484 200.173 443.219 200.173H438.265V220.33H435.446Z" fill="white"/>
<path d="M473.759 220.33V197.747H476.577V217.904H487.395V220.33H473.759Z" fill="white"/>
<path d="M510.713 220.33H507.759L516.304 197.747H519.213L527.759 220.33H524.804L517.85 201.32H517.668L510.713 220.33ZM511.804 211.509H523.713V213.935H511.804V211.509Z" fill="white"/>
<path d="M546.259 197.747H549.486L555.941 208.289H556.213L562.668 197.747H565.895L557.486 211.023V220.33H554.668V211.023L546.259 197.747Z" fill="white"/>
<path d="M377.305 157.268C392.104 150.325 401.293 138.405 401.293 121.162V120.815C401.293 108.664 397.474 99.8692 390.194 92.8097C381.721 84.4781 367.877 79.2701 346.276 79.2701H286.723V186.314H327.419V163.748H336.131L374.68 220.799H421.224L377.305 157.268ZM360.716 124.056C360.716 131.346 354.749 135.512 345.082 135.512H327.419V112.368H345.201C354.63 112.368 360.716 116.07 360.716 123.708V124.056Z" fill="white"/>
<path d="M689.51 76.7248C660.867 76.7248 637.237 92.5787 627.57 115.145C626.496 105.886 622.916 98.7114 616.71 92.8097C608.117 84.4781 594.392 79.2701 572.791 79.2701H513.238V174.279L471.945 78.4608H431.487L393.536 166.409L407.26 186.314H553.935V163.748H562.647L578.042 186.314H624.229L603.701 157.267C612.055 153.333 618.5 147.894 622.677 140.835C623.274 159.35 632.344 175.551 646.546 186.314H731.28C746.318 175.088 755.627 157.846 755.627 138.404V138.057C755.865 103.804 727.103 76.7248 689.51 76.7248ZM438.887 157.152L451.418 124.98L463.83 157.152H438.887ZM587.232 124.055C587.232 131.346 581.265 135.512 571.598 135.512H554.054V112.367H571.836C581.264 112.367 587.351 116.07 587.351 123.708V124.055H587.232ZM714.811 138.752C714.811 152.639 705.025 165.136 689.51 165.136C673.876 165.136 663.851 152.522 663.851 138.404V138.057C663.851 124.171 673.637 111.673 689.152 111.673C704.786 111.673 714.811 124.287 714.811 138.404V138.752Z" fill="white"/>
<path d="M89.4186 129.447C89.4186 129.447 107.71 120.557 119.413 114.849C119.413 114.849 120.222 114.297 121.08 114.83C121.938 115.362 121.869 116.261 121.869 116.261V139.22C121.869 139.637 121.708 140.055 121.388 140.389C117.222 144.816 112.414 148.324 107.046 150.746C101.517 153.335 95.588 154.588 89.4987 154.588C83.4091 154.588 77.4801 153.252 71.9515 150.746C70.1887 149.911 68.4259 148.992 66.7433 147.906C65.942 147.489 65.7016 146.403 66.1825 145.651C66.583 144.816 67.6247 144.565 68.3458 145.066C69.8681 145.985 71.4706 146.904 73.1532 147.656C78.2813 149.994 83.8099 151.164 89.4186 151.164C95.0273 151.164 100.556 149.994 105.764 147.656C110.491 145.484 114.818 142.394 118.584 138.468V118.839L90.1396 132.788C89.8992 132.872 89.6587 132.955 89.4186 132.955C89.1781 132.955 88.9376 132.872 88.6975 132.788L66.8234 122.097C66.0222 121.679 65.6217 120.677 66.0222 119.841C66.423 119.006 67.3842 118.589 68.1855 119.006L89.4186 129.447Z" fill="white"/>
<path d="M146.349 102.663L88.2486 76.8284C87.8481 76.6018 87.287 76.6018 86.8865 76.8284L28.7055 102.663C28.1447 102.889 27.824 103.418 27.824 104.022C27.824 104.627 28.1447 105.155 28.7055 105.382L48.4198 114.144C49.2211 114.522 50.1827 114.144 50.5835 113.389C50.9843 112.634 50.5835 111.727 49.7822 111.35L33.1132 103.947L87.5274 79.9257L141.861 104.022L124.552 111.727C123.75 112.105 123.43 113.011 123.75 113.767C123.991 114.296 124.632 114.598 125.193 114.598C125.433 114.598 125.674 114.522 125.914 114.447L146.349 105.382C146.91 105.155 147.231 104.627 147.231 104.022C147.231 103.418 146.91 102.889 146.349 102.663Z" fill="white"/>
<path d="M87.889 104.17C88.2767 104.933 87.9665 105.848 87.1907 106.229L58.4021 120.114V160.24C58.4021 161.08 57.7038 161.766 56.8502 161.766C55.9968 161.766 55.2983 161.08 55.2983 160.24V118.59C55.2983 118.59 55.2975 118.333 55.5353 118.169C55.7732 118.005 55.8445 117.981 55.8445 117.981L85.7937 103.483C86.5698 103.102 87.5009 103.407 87.889 104.17Z" fill="white"/>
<path d="M1.91875 2.24149C2.861 0.302583 5.24464 -0.528 7.24275 0.386333L243.783 108.627C245.781 109.541 246.637 111.854 245.694 113.793C244.752 115.732 242.369 116.562 240.37 115.648L3.83056 7.40775C1.83245 6.49341 0.9765 4.1804 1.91875 2.24149Z" fill="white"/>
<path d="M5.41372 6.15633e-05C7.62282 0.0120075 9.40367 1.75946 9.39136 3.90311L7.99994 246.191C7.98763 248.335 6.18682 250.063 3.97771 250.051C1.76861 250.039 -0.0122472 248.292 6.34428e-05 246.148L1.39149 3.85984C1.4038 1.71619 3.20461 -0.0118843 5.41372 6.15633e-05Z" fill="white"/>
<path d="M245.728 110.55C246.846 112.399 246.208 114.777 244.303 115.862L165.714 160.618C163.808 161.704 161.358 161.084 160.239 159.236C159.121 157.387 159.759 155.008 161.664 153.923L240.254 109.167C242.159 108.082 244.61 108.701 245.728 110.55Z" fill="white"/>
<path d="M132.438 174.558C133.54 176.416 132.88 178.789 130.965 179.858L6.37458 249.39C4.45957 250.459 2.0143 249.818 0.912931 247.96C-0.188438 246.102 0.471152 243.729 2.38617 242.66L126.977 173.129C128.892 172.06 131.337 172.7 132.438 174.558Z" fill="white"/>
</svg>
