<svg width="35" height="34" viewBox="0 0 35 34" fill="none" xmlns="http://www.w3.org/2000/svg">
<g clip-path="url(#clip0_6_30)">
<path d="M28.6538 5.92768C26.4492 4.9159 24.1228 4.19378 21.7327 3.77931C21.7111 3.77566 21.6888 3.77881 21.669 3.78832C21.6492 3.79784 21.6329 3.81325 21.6222 3.83243C21.3226 4.36368 20.9911 5.05856 20.7595 5.60256C18.1831 5.21158 15.5626 5.21158 12.9862 5.60256C12.7278 4.99655 12.4355 4.40557 12.1107 3.83243C12.0998 3.81346 12.0834 3.79822 12.0637 3.78874C12.044 3.77926 12.0218 3.77597 12.0002 3.77931C9.6096 4.19156 7.28272 4.91406 5.07909 5.92768C5.06024 5.93488 5.04447 5.9484 5.03447 5.96593C0.627221 12.5513 -0.581905 18.9752 0.0109702 25.3183C0.0130952 25.3481 0.0322202 25.3778 0.0555952 25.3969C2.62201 27.298 5.4926 28.7495 8.54497 29.6894C8.56652 29.6962 8.58968 29.696 8.61108 29.6887C8.63248 29.6815 8.65101 29.6676 8.66397 29.6491C9.31847 28.7566 9.90072 27.8152 10.4022 26.8249C10.4127 26.8045 10.4163 26.7813 10.4124 26.7587C10.4086 26.7361 10.3976 26.7154 10.381 26.6996C10.37 26.6892 10.357 26.6812 10.3427 26.6762C9.42719 26.3243 8.5405 25.9016 7.69072 25.4118C7.66699 25.3984 7.64933 25.3763 7.64142 25.3502C7.63351 25.3241 7.63594 25.2959 7.64822 25.2716C7.65545 25.2557 7.66638 25.2419 7.68009 25.2312C7.85859 25.0973 8.0371 24.9571 8.2071 24.8168C8.22211 24.8047 8.24013 24.797 8.25922 24.7943C8.27831 24.7917 8.29775 24.7944 8.31547 24.8019C13.8808 27.3434 19.9052 27.3434 25.4026 24.8019C25.421 24.794 25.4411 24.7912 25.461 24.7938C25.4808 24.7964 25.4996 24.8044 25.5152 24.8168C25.6852 24.9571 25.8637 25.0973 26.0422 25.2312C26.0567 25.2418 26.0683 25.2557 26.076 25.2719C26.0838 25.2881 26.0874 25.3059 26.0865 25.3238C26.0857 25.3417 26.0804 25.3591 26.0712 25.3744C26.062 25.3898 26.0491 25.4026 26.0337 25.4118C25.1859 25.9061 24.2981 26.3283 23.3796 26.6741C23.3649 26.6794 23.3516 26.6878 23.3406 26.6988C23.3296 26.7099 23.3211 26.7232 23.3158 26.7378C23.3109 26.752 23.309 26.767 23.3101 26.782C23.3112 26.797 23.3153 26.8116 23.3222 26.8249C23.8322 27.8131 24.4166 28.7566 25.0583 29.6491C25.0713 29.6676 25.0898 29.6815 25.1112 29.6887C25.1326 29.696 25.1558 29.6962 25.1773 29.6894C28.2348 28.7524 31.1101 27.3007 33.6795 25.3969C33.6923 25.388 33.703 25.3763 33.7108 25.3627C33.7185 25.3491 33.723 25.3339 33.7241 25.3183C34.4338 17.9849 32.5362 11.6142 28.6963 5.96806C28.6925 5.95873 28.6867 5.95032 28.6794 5.94337C28.6721 5.93641 28.6634 5.93107 28.6538 5.92768ZM11.2331 21.4551C9.55647 21.4551 8.17734 19.9166 8.17734 18.0296C8.17734 16.1404 9.53097 14.6019 11.2331 14.6019C12.948 14.6019 14.3143 16.1532 14.2888 18.0296C14.2888 19.9166 12.9352 21.4551 11.2331 21.4551ZM22.5296 21.4551C20.8551 21.4551 19.4738 19.9166 19.4738 18.0296C19.4738 16.1404 20.8275 14.6019 22.5296 14.6019C24.2445 14.6019 25.613 16.1532 25.5853 18.0296C25.5853 19.9166 24.2445 21.4551 22.5296 21.4551Z" fill="#F0F1F7"/>
</g>
<defs>
<clipPath id="clip0_6_30">
<rect width="34" height="34" fill="white" transform="translate(0.5)"/>
</clipPath>
</defs>
</svg>
