<svg width="31" height="31" viewBox="0 0 31 31" fill="none" xmlns="http://www.w3.org/2000/svg">
<g clip-path="url(#clip0_6_117)">
<path d="M15.0833 0C10.9901 0 10.4754 0.0188542 8.86711 0.0905C7.25885 0.165917 6.16343 0.418562 5.20375 0.791875C4.19711 1.1705 3.28532 1.76442 2.53211 2.53211C1.76489 3.28571 1.17105 4.19739 0.791875 5.20375C0.418562 6.16154 0.164031 7.25885 0.0905 8.86146C0.0188542 10.4735 0 10.9863 0 15.0852C0 19.1803 0.0188542 19.6932 0.0905 21.3014C0.165917 22.9078 0.418562 24.0032 0.791875 24.9629C1.17839 25.9546 1.6931 26.7955 2.53211 27.6346C3.36924 28.4736 4.21014 28.9902 5.20186 29.3748C6.16343 29.7481 7.25697 30.0026 8.86334 30.0762C10.4735 30.1478 10.9863 30.1667 15.0833 30.1667C19.1803 30.1667 19.6913 30.1478 21.3014 30.0762C22.9059 30.0007 24.0051 29.7481 24.9648 29.3748C25.9708 28.996 26.8819 28.4021 27.6346 27.6346C28.4736 26.7955 28.9883 25.9546 29.3748 24.9629C29.7462 24.0032 30.0007 22.9078 30.0762 21.3014C30.1478 19.6932 30.1667 19.1803 30.1667 15.0833C30.1667 10.9863 30.1478 10.4735 30.0762 8.86334C30.0007 7.25885 29.7462 6.16154 29.3748 5.20375C28.9957 4.19736 28.4018 3.28567 27.6346 2.53211C26.8816 1.76414 25.9697 1.17018 24.9629 0.791875C24.0014 0.418562 22.904 0.164031 21.2996 0.0905C19.6894 0.0188542 19.1785 0 15.0796 0H15.0852H15.0833ZM13.7315 2.71877H15.0852C19.1125 2.71877 19.5895 2.73197 21.1789 2.8055C22.6495 2.87149 23.4489 3.11848 23.9806 3.32399C24.6839 3.59737 25.1873 3.92544 25.7152 4.45335C26.2431 4.98127 26.5693 5.48279 26.8427 6.18794C27.0501 6.71774 27.2952 7.51716 27.3612 8.98778C27.4347 10.5772 27.4498 11.0542 27.4498 15.0796C27.4498 19.1049 27.4347 19.5838 27.3612 21.1732C27.2952 22.6439 27.0482 23.4414 26.8427 23.9731C26.6009 24.628 26.2149 25.2202 25.7133 25.7058C25.1854 26.2337 24.6839 26.5599 23.9787 26.8333C23.4508 27.0406 22.6514 27.2857 21.1789 27.3536C19.5895 27.4253 19.1125 27.4422 15.0852 27.4422C11.058 27.4422 10.5791 27.4253 8.98967 27.3536C7.51904 27.2857 6.72151 27.0406 6.18982 26.8333C5.53464 26.5918 4.94191 26.2065 4.45524 25.7058C3.95325 25.2194 3.56669 24.6267 3.32399 23.9712C3.11848 23.4414 2.87149 22.642 2.8055 21.1713C2.73385 19.5819 2.71877 19.1049 2.71877 15.0758C2.71877 11.0485 2.73385 10.5734 2.8055 8.98401C2.87337 7.51339 3.11848 6.71397 3.32588 6.18228C3.59926 5.47902 3.92732 4.97561 4.45524 4.4477C4.98316 3.91978 5.48468 3.5936 6.18982 3.32022C6.72151 3.11282 7.51904 2.86772 8.98967 2.79984C10.3811 2.73574 10.9203 2.71689 13.7315 2.715V2.71877ZM23.1359 5.2226C22.8983 5.2226 22.6629 5.26942 22.4433 5.36038C22.2237 5.45134 22.0242 5.58467 21.8561 5.75274C21.688 5.92081 21.5547 6.12035 21.4637 6.33995C21.3728 6.55955 21.3259 6.79491 21.3259 7.0326C21.3259 7.2703 21.3728 7.50566 21.4637 7.72526C21.5547 7.94486 21.688 8.14439 21.8561 8.31247C22.0242 8.48054 22.2237 8.61386 22.4433 8.70483C22.6629 8.79579 22.8983 8.8426 23.1359 8.8426C23.616 8.8426 24.0764 8.65191 24.4158 8.31247C24.7553 7.97303 24.9459 7.51265 24.9459 7.0326C24.9459 6.55256 24.7553 6.09218 24.4158 5.75274C24.0764 5.4133 23.616 5.2226 23.1359 5.2226ZM15.0852 7.33804C14.0578 7.32201 13.0375 7.51053 12.0836 7.89262C11.1297 8.27471 10.2614 8.84274 9.52918 9.56363C8.79695 10.2845 8.21545 11.1439 7.81852 12.0917C7.4216 13.0395 7.21719 14.0567 7.21719 15.0843C7.21719 16.1118 7.4216 17.1291 7.81852 18.0769C8.21545 19.0247 8.79695 19.884 9.52918 20.6049C10.2614 21.3258 11.1297 21.8938 12.0836 22.2759C13.0375 22.658 14.0578 22.8465 15.0852 22.8305C17.1187 22.7988 19.0582 21.9687 20.485 20.5195C21.9118 19.0702 22.7115 17.118 22.7115 15.0843C22.7115 13.0505 21.9118 11.0983 20.485 9.64909C19.0582 8.19984 17.1187 7.36977 15.0852 7.33804ZM15.0852 10.0549C16.4188 10.0549 17.6978 10.5847 18.6408 11.5277C19.5838 12.4707 20.1136 13.7497 20.1136 15.0833C20.1136 16.4169 19.5838 17.6959 18.6408 18.639C17.6978 19.582 16.4188 20.1117 15.0852 20.1117C13.7516 20.1117 12.4726 19.582 11.5296 18.639C10.5866 17.6959 10.0568 16.4169 10.0568 15.0833C10.0568 13.7497 10.5866 12.4707 11.5296 11.5277C12.4726 10.5847 13.7516 10.0549 15.0852 10.0549Z" fill="#F0F1F7"/>
</g>
<defs>
<clipPath id="clip0_6_117">
<rect width="30.1667" height="30.1667" fill="white"/>
</clipPath>
</defs>
</svg>
