<svg width="31" height="31" viewBox="0 0 31 31" fill="none" xmlns="http://www.w3.org/2000/svg">
<g clip-path="url(#clip0_6_119)">
<path d="M0.166748 2.16069C0.166748 0.967219 1.15848 0 2.38211 0H28.118C29.3417 0 30.3334 0.967219 30.3334 2.16069V28.006C30.3334 29.1994 29.3417 30.1667 28.118 30.1667H2.38211C1.15848 30.1667 0.166748 29.1994 0.166748 28.006V2.16069ZM9.48636 25.2533V11.6311H4.95948V25.2533H9.48636ZM7.22386 9.77023C8.80196 9.77023 9.78426 8.72571 9.78426 7.41723C9.75598 6.08047 8.80384 5.06423 7.25403 5.06423C5.70422 5.06423 4.69175 6.08235 4.69175 7.41723C4.69175 8.72571 5.67405 9.77023 7.1937 9.77023H7.22386ZM16.4775 25.2533V17.6456C16.4775 17.2384 16.5077 16.8311 16.6283 16.5408C16.9545 15.7281 17.6992 14.8854 18.9512 14.8854C20.5896 14.8854 21.2438 16.1335 21.2438 17.9661V25.2533H25.7707V17.4401C25.7707 13.2545 23.5384 11.3087 20.5594 11.3087C18.1574 11.3087 17.0808 12.6285 16.4775 13.558V13.6052H16.4473C16.4573 13.5894 16.4674 13.5737 16.4775 13.558V11.6311H11.9525C12.009 12.9094 11.9525 25.2533 11.9525 25.2533H16.4775Z" fill="#F0F1F7"/>
</g>
<defs>
<clipPath id="clip0_6_119">
<rect width="30.1667" height="30.1667" fill="white" transform="translate(0.166748)"/>
</clipPath>
</defs>
</svg>
