<svg width="31" height="26" viewBox="0 0 31 26" fill="none" xmlns="http://www.w3.org/2000/svg">
<path d="M9.80959 25.5331C21.1937 25.5331 27.4212 15.7073 27.4212 7.20131C27.4212 6.92636 27.4212 6.64747 27.4099 6.37251C28.6224 5.45825 29.6688 4.32634 30.5001 3.02982C29.3676 3.54998 28.1674 3.8928 26.9386 4.04716C28.233 3.24122 29.2024 1.97314 29.6668 0.478609C28.4507 1.22909 27.1196 1.75593 25.7319 2.03605C24.799 1.00107 23.5644 0.315437 22.2195 0.0853362C20.8746 -0.144764 19.4944 0.0935142 18.2927 0.763263C17.091 1.43301 16.1348 2.49685 15.5723 3.79C15.0097 5.08315 14.8723 6.53343 15.1811 7.9162C12.7202 7.78766 10.3126 7.12171 8.11468 5.96154C5.91672 4.80137 3.97741 3.17288 2.42253 1.18171C1.63319 2.60184 1.3923 4.28166 1.74877 5.88008C2.10525 7.47849 3.03238 8.87567 4.34189 9.78788C3.3606 9.75315 2.40089 9.47867 1.54016 8.98657V9.07495C1.54185 10.5626 2.0366 12.0041 2.94079 13.1556C3.84497 14.3072 5.10312 15.0982 6.50257 15.395C5.97138 15.5475 5.42266 15.6235 4.87169 15.6209C4.48326 15.6221 4.09561 15.5846 3.71404 15.509C4.10958 16.7896 4.87974 17.9093 5.91667 18.7112C6.9536 19.5131 8.20535 19.9571 9.49661 19.9809C7.30303 21.7756 4.5934 22.749 1.80412 22.7443C1.31263 22.7464 0.821485 22.7169 0.333496 22.6559C3.16447 24.5359 6.45223 25.5342 9.80959 25.5331Z" fill="#F0F1F7"/>
</svg>
