<svg width="31" height="22" viewBox="0 0 31 22" fill="none" xmlns="http://www.w3.org/2000/svg">
<path d="M15.6804 0H15.8482C17.3981 0.00565187 25.2514 0.0621709 27.3688 0.631126C28.009 0.804768 28.5923 1.14323 29.0605 1.61268C29.5286 2.08214 29.8653 2.66615 30.0369 3.30635C30.2273 4.02225 30.3612 4.96988 30.4517 5.94765L30.4705 6.14359L30.512 6.63341L30.5271 6.82935C30.6497 8.55128 30.6647 10.1639 30.6666 10.5162V10.6575C30.6647 11.023 30.6478 12.745 30.512 14.5385L30.4969 14.7363L30.48 14.9322C30.3857 16.0099 30.2462 17.08 30.0369 17.8675C29.8659 18.5079 29.5293 19.0922 29.0611 19.5617C28.5928 20.0313 28.0092 20.3696 27.3688 20.5427C25.1816 21.1305 16.8683 21.1719 15.7162 21.1738H15.4485C14.8659 21.1738 12.4562 21.1625 9.92955 21.0758L9.609 21.0645L9.44496 21.057L9.12254 21.0438L8.80011 21.0306C6.70717 20.9383 4.71416 20.7895 3.79591 20.5408C3.15575 20.3678 2.57232 20.0298 2.10407 19.5606C1.63581 19.0915 1.29918 18.5076 1.12788 17.8675C0.918588 17.0818 0.779059 16.0099 0.684782 14.9322L0.669698 14.7344L0.654614 14.5385C0.561558 13.2619 0.509993 11.9827 0.5 10.7028L0.5 10.471C0.503771 10.066 0.518855 8.6662 0.620674 7.12136L0.633873 6.92731L0.639529 6.82935L0.654614 6.63341L0.696095 6.14359L0.714951 5.94765C0.805456 4.96988 0.939329 4.02037 1.12977 3.30635C1.30077 2.66589 1.63728 2.0816 2.10556 1.61207C2.57383 1.14253 3.15741 0.804247 3.7978 0.631126C4.71605 0.386212 6.70906 0.235495 8.802 0.141297L9.12254 0.128109L9.44685 0.116806L9.609 0.111154L9.93143 0.0979661C11.7259 0.0402691 13.5211 0.00823829 15.3165 0.00188405H15.6804V0ZM12.5674 6.0475V15.1244L20.4056 10.5878L12.5674 6.0475Z" fill="#F0F1F7"/>
</svg>
