<svg width="479" height="375" viewBox="0 0 479 375" fill="none" xmlns="http://www.w3.org/2000/svg">
<g clip-path="url(#clip0_24_1123)">
<mask id="mask0_24_1123" style="mask-type:alpha" maskUnits="userSpaceOnUse" x="-1" y="215" width="262" height="152">
<path d="M4.22021 216.818L2.97896 217.562C-1.48956 220.165 -0.993056 224.628 4.22021 227.603L238.445 364.339C243.534 367.314 251.354 367.686 255.947 365.207L257.188 364.463C261.656 361.859 261.16 357.397 255.947 354.421L21.7219 217.686C16.5086 214.587 8.68873 214.215 4.22021 216.818Z" fill="url(#paint0_linear_24_1123)"/>
</mask>
<g mask="url(#mask0_24_1123)">
<path opacity="0.66" d="M4.22021 216.818L2.97896 217.562C-1.48956 220.165 -0.993056 224.628 4.22021 227.603L238.445 364.339C243.534 367.314 251.354 367.686 255.947 365.207L257.188 364.463C261.656 361.859 261.16 357.397 255.947 354.421L21.7219 217.686C16.5086 214.587 8.68873 214.215 4.22021 216.818Z" fill="url(#paint1_linear_24_1123)"/>
</g>
<mask id="mask1_24_1123" style="mask-type:alpha" maskUnits="userSpaceOnUse" x="93" y="231" width="140" height="82">
<path d="M97.5625 233.554L96.3212 234.297C91.8527 236.901 92.3492 241.364 97.5625 244.339L210.641 310.413C215.73 313.388 223.55 313.76 228.142 311.281L229.384 310.537C233.852 307.934 233.356 303.471 228.142 300.496L114.94 234.297C109.851 231.322 102.031 230.95 97.5625 233.554Z" fill="url(#paint2_linear_24_1123)"/>
</mask>
<g mask="url(#mask1_24_1123)">
<path opacity="0.66" d="M97.5625 233.554L96.3212 234.297C91.8527 236.901 92.3492 241.364 97.5625 244.339L210.641 310.413C215.73 313.388 223.55 313.76 228.142 311.281L229.384 310.537C233.852 307.934 233.356 303.471 228.142 300.496L114.94 234.297C109.851 231.322 102.031 230.95 97.5625 233.554Z" fill="url(#paint3_linear_24_1123)"/>
</g>
<mask id="mask2_24_1123" style="mask-type:alpha" maskUnits="userSpaceOnUse" x="153" y="228" width="173" height="102">
<path d="M157.391 230.702L156.15 231.446C151.681 234.05 152.178 238.512 157.391 241.488L303.983 327.025C309.072 330 316.892 330.372 321.485 327.893L322.726 327.149C327.194 324.545 326.698 320.083 321.485 317.107L174.893 231.57C169.679 228.471 161.859 228.099 157.391 230.702Z" fill="url(#paint4_linear_24_1123)"/>
</mask>
<g mask="url(#mask2_24_1123)">
<path opacity="0.66" d="M157.391 230.702L156.15 231.446C151.681 234.05 152.178 238.512 157.391 241.488L303.983 327.025C309.072 330 316.892 330.372 321.485 327.893L322.726 327.149C327.194 324.545 326.698 320.083 321.485 317.107L174.893 231.57C169.679 228.471 161.859 228.099 157.391 230.702Z" fill="url(#paint5_linear_24_1123)"/>
</g>
<mask id="mask3_24_1123" style="mask-type:alpha" maskUnits="userSpaceOnUse" x="29" y="119" width="330" height="192">
<path d="M34.1345 120.992L32.8933 121.735C28.4247 124.339 28.9213 128.802 34.1345 131.777L336.628 308.306C341.717 311.281 349.537 311.653 354.13 309.174L355.371 308.43C359.84 305.826 359.343 301.364 354.13 298.388L51.6362 121.859C46.4229 118.884 38.603 118.512 34.1345 120.992Z" fill="url(#paint6_linear_24_1123)"/>
</mask>
<g mask="url(#mask3_24_1123)">
<path opacity="0.66" d="M34.1345 120.992L32.8933 121.735C28.4247 124.339 28.9213 128.802 34.1345 131.777L336.628 308.306C341.717 311.281 349.537 311.653 354.13 309.174L355.371 308.43C359.84 305.826 359.343 301.364 354.13 298.388L51.6362 121.859C46.4229 118.884 38.603 118.512 34.1345 120.992Z" fill="url(#paint7_linear_24_1123)"/>
</g>
<mask id="mask4_24_1123" style="mask-type:alpha" maskUnits="userSpaceOnUse" x="150" y="80" width="330" height="193">
<path d="M154.784 82.1901L153.543 82.9339C149.075 85.5372 149.571 90 154.784 92.9752L457.278 269.504C462.367 272.479 470.187 272.851 474.78 270.372L476.021 269.628C480.49 267.025 479.993 262.562 474.78 259.587L172.286 82.9339C167.073 79.9587 159.253 79.5868 154.784 82.1901Z" fill="url(#paint8_linear_24_1123)"/>
</mask>
<g mask="url(#mask4_24_1123)">
<path opacity="0.66" d="M154.784 82.1901L153.543 82.9339C149.075 85.5372 149.571 90 154.784 92.9752L457.278 269.504C462.367 272.479 470.187 272.851 474.78 270.372L476.021 269.628C480.49 267.025 479.993 262.562 474.78 259.587L172.286 82.9339C167.073 79.9587 159.253 79.5868 154.784 82.1901Z" fill="url(#paint9_linear_24_1123)"/>
</g>
<mask id="mask5_24_1123" style="mask-type:alpha" maskUnits="userSpaceOnUse" x="106" y="18" width="329" height="193">
<path d="M110.596 20.2066L109.354 20.9504C104.886 23.5537 105.382 28.0165 110.596 30.9917L413.089 207.521C418.178 210.496 425.998 210.868 430.591 208.388L431.832 207.645C436.301 205.041 435.804 200.578 430.591 197.603L128.097 21.0744C123.008 18.0992 115.188 17.7273 110.596 20.2066Z" fill="url(#paint10_linear_24_1123)"/>
</mask>
<g mask="url(#mask5_24_1123)">
<path opacity="0.66" d="M110.596 20.2066L109.354 20.9504C104.886 23.5537 105.382 28.0165 110.596 30.9917L413.089 207.521C418.178 210.496 425.998 210.868 430.591 208.388L431.832 207.645C436.301 205.041 435.804 200.578 430.591 197.603L128.097 21.0744C123.008 18.0992 115.188 17.7273 110.596 20.2066Z" fill="url(#paint11_linear_24_1123)"/>
</g>
<mask id="mask6_24_1123" style="mask-type:alpha" maskUnits="userSpaceOnUse" x="110" y="128" width="282" height="165">
<path d="M115.064 130.537L113.823 131.281C109.354 133.884 109.851 138.347 115.064 141.322L369.397 289.711C374.486 292.686 382.306 293.058 386.899 290.578L388.14 289.835C392.609 287.231 392.112 282.769 386.899 279.793L132.566 131.281C127.353 128.306 119.533 127.934 115.064 130.537Z" fill="url(#paint12_linear_24_1123)"/>
</mask>
<g mask="url(#mask6_24_1123)">
<path opacity="0.66" d="M115.064 130.537L113.823 131.281C109.354 133.884 109.851 138.347 115.064 141.322L369.397 289.711C374.486 292.686 382.306 293.058 386.899 290.578L388.14 289.835C392.609 287.231 392.112 282.769 386.899 279.793L132.566 131.281C127.353 128.306 119.533 127.934 115.064 130.537Z" fill="url(#paint13_linear_24_1123)"/>
</g>
<mask id="mask7_24_1123" style="mask-type:alpha" maskUnits="userSpaceOnUse" x="163" y="121" width="123" height="72">
<path d="M167.942 123.595L166.7 124.339C162.232 126.942 162.728 131.405 167.942 134.38L263.27 190.041C268.359 193.017 276.179 193.388 280.772 190.909L282.013 190.165C286.481 187.562 285.985 183.099 280.772 180.124L185.443 124.463C180.23 121.364 172.41 120.992 167.942 123.595Z" fill="url(#paint14_linear_24_1123)"/>
</mask>
<g mask="url(#mask7_24_1123)">
<path opacity="0.66" d="M167.942 123.595L166.7 124.339C162.232 126.942 162.728 131.405 167.942 134.38L263.27 190.041C268.359 193.017 276.179 193.388 280.772 190.909L282.013 190.165C286.481 187.562 285.985 183.099 280.772 180.124L185.443 124.463C180.23 121.364 172.41 120.992 167.942 123.595Z" fill="url(#paint15_linear_24_1123)"/>
</g>
<path d="M218.957 375C216.102 375 213.372 374.256 210.889 372.893L39.3478 273.967C38.1066 273.223 37.3618 271.983 37.3618 270.496C37.3618 269.008 38.1066 267.769 39.3478 267.025L146.716 205.165L147.585 205.661L326.326 308.678C327.567 309.421 328.312 310.661 328.312 312.149C328.312 313.636 327.567 314.876 326.326 315.62L227.15 372.893C224.543 374.256 221.688 375 218.957 375ZM146.716 209.008L41.0856 270C40.8373 270.124 40.7132 270.372 40.7132 270.62C40.7132 270.744 40.7132 270.992 41.0856 271.24L212.503 370.041C216.475 372.397 221.44 372.397 225.412 370.041L324.588 312.769C324.836 312.645 324.96 312.397 324.96 312.149C324.96 312.025 324.96 311.777 324.588 311.529L146.716 209.008Z" fill="url(#paint16_linear_24_1123)"/>
<path d="M146.468 164.38L170.3 22.9339L168.438 22.0661L171.293 20.4545C171.914 20.0826 172.659 20.0826 173.527 20.5785L364.432 130.661C366.046 131.529 367.163 133.884 366.915 135.496L342.834 278.058C342.71 278.802 342.338 279.297 341.841 279.545L338.987 281.157L338.49 278.554H338.614L148.951 169.215C147.461 168.347 146.22 165.992 146.468 164.38Z" fill="url(#paint17_linear_24_1123)"/>
<path d="M363.315 134.504L366.419 133.141C366.791 133.884 366.915 134.752 366.791 135.496L342.711 278.058C342.586 278.802 342.214 279.298 341.718 279.545L338.863 281.157L338.366 278.554H338.49L328.933 272.975L363.315 134.504Z" fill="url(#paint18_linear_24_1123)"/>
<path d="M145.972 170.95L336.877 281.033C338.366 281.901 339.607 281.405 339.856 279.917L363.936 137.355C364.184 135.744 363.067 133.388 361.453 132.521L170.548 22.3141C169.059 21.4463 167.818 21.9422 167.569 23.4298L143.489 165.992C143.241 167.727 144.358 169.959 145.972 170.95Z" fill="#242993"/>
<g opacity="0.51">
<path opacity="0.51" d="M173.031 31.3636L356.985 137.479L334.27 271.736L150.316 165.744L173.031 31.3636Z" fill="#4553C7"/>
</g>
<path d="M26.0664 238.388L36.4929 243.843L140.882 183.595C142.62 182.603 145.723 182.727 147.709 183.843L327.815 287.727C329.553 286.736 337.373 283.017 337.373 283.017L333.525 292.934C333.401 293.43 333.029 293.802 332.408 294.174L222.433 357.645C220.695 358.636 217.592 358.512 215.606 357.397L31.4038 251.033C30.5349 250.537 30.0384 249.917 29.9143 249.422L26.0664 238.388Z" fill="url(#paint19_linear_24_1123)"/>
<path d="M27.68 240.124L216.599 349.091C218.709 350.331 221.812 350.455 223.55 349.339L336.256 284.38C337.994 283.388 337.869 281.529 335.759 280.413L146.84 171.446C144.73 170.207 141.627 170.083 139.889 171.198L27.1835 236.157C25.3216 237.149 25.5699 239.008 27.68 240.124Z" fill="url(#paint20_linear_24_1123)"/>
<path d="M273.573 325.537V323.43C273.573 323.182 273.448 323.182 273.324 323.182L266.001 327.397C265.877 327.521 265.753 327.769 265.753 327.893V330C265.753 330.248 265.877 330.248 266.001 330.248L273.324 326.033C273.448 325.909 273.573 325.661 273.573 325.537Z" fill="#2859CB"/>
<path d="M262.649 331.86V329.752C262.649 329.504 262.525 329.504 262.401 329.504L255.078 333.719C254.954 333.843 254.83 334.091 254.83 334.215V336.322C254.83 336.57 254.954 336.57 255.078 336.57L262.401 332.355C262.525 332.231 262.649 331.984 262.649 331.86Z" fill="#2859CB"/>
<path d="M306.838 278.306L149.819 187.81C148.826 187.19 147.461 187.19 146.468 187.81L90.6115 220.165C89.8668 220.661 89.8668 221.777 90.6115 222.273L247.506 312.769C248.499 313.388 249.864 313.388 250.857 312.769L306.838 280.537C307.707 279.917 307.707 278.678 306.838 278.306Z" fill="#ADC8FF"/>
<path d="M306.838 280.413L306.217 280.785L149.819 190.537C148.826 189.917 147.461 189.917 146.468 190.537L91.1081 222.521L90.4875 222.149C89.7428 221.653 89.7428 220.537 90.4875 220.041L146.344 187.686C147.337 187.066 148.702 187.066 149.695 187.686L306.714 278.182C307.707 278.678 307.707 279.917 306.838 280.413Z" fill="#91AFFF"/>
<path d="M142.248 195.992L278.662 274.587L284.744 271.116L148.33 192.397L142.248 195.992Z" fill="#242993"/>
<path d="M127.477 204.545L255.326 278.306L261.408 274.711L133.435 201.074L127.477 204.545Z" fill="#242993"/>
<path d="M117.795 210.124L268.359 296.901L274.441 293.43L123.753 206.653L117.795 210.124Z" fill="#242993"/>
<path d="M108.114 215.703L258.678 302.479L264.76 299.008L114.072 212.231L108.114 215.703Z" fill="#242993"/>
<path d="M98.4316 221.281L248.996 308.058L255.078 304.587L104.39 217.81L98.4316 221.281Z" fill="#242993"/>
<path d="M286.854 279.298L292.936 282.769L299.018 279.298L292.936 275.826L286.854 279.298Z" fill="#242993"/>
<path d="M265.504 284.132L278.041 291.446L284.123 287.851L271.587 280.661L265.504 284.132Z" fill="#242993"/>
<path d="M143.861 300.124L101.535 275.702C99.9211 274.711 99.9211 273.223 101.535 272.231L130.456 255.496C132.07 254.504 134.8 254.504 136.414 255.496L178.741 279.917C180.354 280.909 180.354 282.397 178.741 283.388L149.819 300.124C148.206 301.116 145.475 301.116 143.861 300.124Z" fill="url(#paint21_linear_24_1123)"/>
<path d="M178.741 281.405L136.414 256.983C134.8 255.992 132.07 255.992 130.456 256.983L101.535 273.719C101.038 273.967 100.666 274.339 100.542 274.711C100.045 273.843 100.418 272.975 101.535 272.231L130.456 255.496C132.07 254.504 134.8 254.504 136.414 255.496L178.741 279.917C179.858 280.537 180.23 281.529 179.734 282.397C179.61 282.149 179.237 281.777 178.741 281.405Z" fill="#91AFFF"/>
<g opacity="0.11">
<g opacity="0.11">
<path opacity="0.11" d="M146.716 171.198L335.511 280.165C337.621 281.405 340.724 281.529 342.462 280.413L455.168 215.455C456.906 214.463 456.782 212.603 454.672 211.488L265.877 102.397C263.767 101.157 260.664 101.033 258.926 102.149L146.22 167.107C144.358 168.223 144.606 169.959 146.716 171.198Z" fill="url(#paint22_linear_24_1123)"/>
<path opacity="0.11" d="M336.132 190.661L293.805 166.24C292.191 165.248 292.191 163.76 293.805 162.769L322.726 146.033C324.34 145.041 327.071 145.041 328.684 146.033L371.011 170.455C372.625 171.446 372.625 172.934 371.011 173.926L342.09 190.661C340.476 191.653 337.745 191.653 336.132 190.661Z" fill="url(#paint23_linear_24_1123)"/>
<path opacity="0.11" d="M371.011 171.942L328.684 147.521C327.071 146.529 324.34 146.529 322.726 147.521L293.805 164.256C293.308 164.504 292.936 164.876 292.812 165.248C292.315 164.38 292.688 163.512 293.805 162.769L322.726 146.033C324.34 145.041 327.071 145.041 328.684 146.033L371.011 170.455C372.128 171.074 372.5 172.066 372.004 172.934C371.88 172.686 371.632 172.314 371.011 171.942Z" fill="#91AFFF"/>
<g opacity="0.11">
<path opacity="0.11" d="M389.63 228.843L232.611 138.347C231.618 137.727 230.253 137.727 229.26 138.347L173.403 170.703C172.659 171.198 172.659 172.314 173.403 172.81L330.298 263.306C331.291 263.926 332.656 263.926 333.649 263.306L389.63 231.074C390.499 230.455 390.499 229.339 389.63 228.843Z" fill="#ADC8FF"/>
<path opacity="0.11" d="M389.63 230.95L389.009 231.322L232.611 141.074C231.618 140.455 230.253 140.455 229.26 141.074L173.9 173.058L173.279 172.686C172.535 172.19 172.535 171.074 173.279 170.579L229.136 138.223C230.129 137.603 231.494 137.603 232.487 138.223L389.506 228.719C390.499 229.339 390.499 230.455 389.63 230.95Z" fill="#91AFFF"/>
<g opacity="0.11">
<path opacity="0.11" d="M188.05 168.471L324.836 247.314L319.375 250.413L182.589 171.57L188.05 168.471Z" fill="#242993"/>
<path opacity="0.11" d="M202.449 160.165L332.408 235.041L327.071 238.264L196.987 163.264L202.449 160.165Z" fill="#242993"/>
<path opacity="0.11" d="M342.09 240.62L354.254 247.686L348.917 250.785L336.752 243.843L342.09 240.62Z" fill="#242993"/>
<path opacity="0.11" d="M331.415 251.157L339.856 255.992L334.394 259.091L325.954 254.256L331.415 251.157Z" fill="#242993"/>
<path opacity="0.11" d="M211.51 154.959L363.315 242.479L357.854 245.579L206.048 158.058L211.51 154.959Z" fill="#242993"/>
<path opacity="0.11" d="M220.447 149.752L372.376 237.273L366.915 240.372L215.109 152.851L220.447 149.752Z" fill="#242993"/>
<path opacity="0.11" d="M229.508 144.545L381.313 232.066L375.976 235.165L224.171 147.645L229.508 144.545Z" fill="#242993"/>
</g>
</g>
</g>
</g>
<path d="M339.979 145.413L343.703 147.769L344.076 145.041L340.476 142.686L339.979 145.413Z" fill="#42FFFF"/>
<path d="M337 163.636L340.724 165.868L343.207 150.248L339.607 147.893L337 163.636Z" fill="#42FFFF"/>
<path d="M335.635 172.314L339.235 174.669L340.228 168.347L336.628 166.116L335.635 172.314Z" fill="#42FFFF"/>
<path d="M334.146 181.364L337.745 183.595L338.738 177.397L335.139 175.041L334.146 181.364Z" fill="#42FFFF"/>
<path d="M333.153 150.62L336.877 152.975L337.87 146.777L334.27 144.422L333.153 150.62Z" fill="#42FFFF"/>
<path d="M331.291 162.645L334.89 164.876L336.38 155.702L332.78 153.471L331.291 162.645Z" fill="#42FFFF"/>
<path d="M329.429 173.554L333.029 175.909L334.394 168.099L330.67 165.744L329.429 173.554Z" fill="#42FFFF"/>
<path d="M332.656 190.289L336.256 192.645L337.373 186.446L333.649 184.091L332.656 190.289Z" fill="#42FFFF"/>
<path d="M334.642 141.942L338.242 144.298L338.738 141.57L335.015 139.339L334.642 141.942Z" fill="#42FFFF"/>
<path d="M328.56 197.355L334.89 201.446L335.263 198.843L328.932 194.752L328.56 197.355Z" fill="#42FFFF"/>
<path opacity="0.5" d="M206.172 12.6446L190.284 3.47107V0L206.172 9.17355V12.6446Z" fill="#42FFFF"/>
<path opacity="0.5" d="M214.24 17.2314L208.655 14.0082V10.5372L214.24 13.7603V17.2314Z" fill="#42FFFF"/>
<path opacity="0.5" d="M220.571 20.9504L216.723 18.719V15.2479L220.571 17.4793V20.9504Z" fill="#42FFFF"/>
<path opacity="0.5" d="M198.973 16.3637L190.284 11.405V7.9339L198.973 12.8926V16.3637Z" fill="#42FFFF"/>
<path opacity="0.5" d="M212.006 23.9256L201.331 17.7273V14.2562L212.006 20.4546V23.9256Z" fill="#42FFFF"/>
<path opacity="0.5" d="M218.212 27.5207L214.365 25.2893V21.8182L218.212 24.0496V27.5207Z" fill="#42FFFF"/>
<path opacity="0.5" d="M224.295 30.9917L220.323 28.7603V25.2892L224.295 27.5207V30.9917Z" fill="#42FFFF"/>
<path d="M196.615 22.9339L190.284 19.3389V15.8678L196.615 19.4628V22.9339Z" fill="#42FFFF"/>
<path d="M201.083 25.5372L198.973 24.2975V20.8264L201.083 22.0661V25.5372Z" fill="#42FFFF"/>
<path opacity="0.5" d="M207.414 29.2562L203.566 27.0248V23.4297L207.414 25.7851V29.2562Z" fill="#42FFFF"/>
<path opacity="0.5" d="M213.372 40.5372L190.284 27.2727V23.8016L213.372 37.0661V40.5372Z" fill="#42FFFF"/>
<path opacity="0.5" d="M221.564 45.2479L215.854 41.9008V38.4297L221.564 41.7769V45.2479Z" fill="#42FFFF"/>
<path opacity="0.5" d="M196.615 38.8016L190.284 35.2066V31.7355L196.615 35.3306V38.8016Z" fill="#42FFFF"/>
<path opacity="0.5" d="M211.261 47.2314L198.973 40.1653V36.6942L211.261 43.7603V47.2314Z" fill="#42FFFF"/>
<path opacity="0.5" d="M217.592 50.9504L213.62 48.719V45.124L217.592 47.4793V50.9504Z" fill="#42FFFF"/>
<path opacity="0.5" d="M203.069 50.4546L190.284 43.1405V39.6694L203.069 46.9835V50.4546Z" fill="#42FFFF"/>
<path d="M214.737 57.2727L205.552 51.9421V48.4711L214.737 53.8017V57.2727Z" fill="#42FFFF"/>
<path opacity="0.5" d="M223.426 62.2314L217.219 58.6364V55.1653L223.426 58.7603V62.2314Z" fill="#42FFFF"/>
<path opacity="0.5" d="M194.629 53.5537L190.284 51.0744V47.6033L194.629 50.0827V53.5537Z" fill="#42FFFF"/>
<path opacity="0.5" d="M202.821 58.2645L197.111 54.9174V51.4463L202.821 54.7934V58.2645Z" fill="#42FFFF"/>
<path opacity="0.5" d="M214.364 64.9587L205.179 59.6281V56.157L214.364 61.4876V64.9587Z" fill="#42FFFF"/>
<path opacity="0.5" d="M203.566 66.6942L190.284 59.0082V55.5372L203.566 63.2231V66.6942Z" fill="#42FFFF"/>
<path opacity="0.5" d="M218.337 75.124L205.924 68.0579V64.5868L218.337 71.6529V75.124Z" fill="#42FFFF"/>
<path d="M224.667 78.843L220.819 76.6116V73.1405L224.667 75.3719V78.843Z" fill="#42FFFF"/>
<path opacity="0.5" d="M230.749 82.314L226.777 80.0826V76.6116L230.749 78.843V82.314Z" fill="#42FFFF"/>
<path opacity="0.5" d="M198.228 71.5289L190.284 66.9421V63.4711L198.228 68.0578V71.5289Z" fill="#42FFFF"/>
<path d="M231.37 27.1487L242.417 33.4711V30L231.37 23.6777V27.1487Z" fill="#42FFFF"/>
<path opacity="0.5" d="M233.728 36.4463L242.417 41.405V37.9339L233.728 32.9752V36.4463Z" fill="#42FFFF"/>
<path opacity="0.5" d="M236.086 45.7438L242.417 49.3388V45.8677L236.086 42.2727V45.7438Z" fill="#42FFFF"/>
<path opacity="0.5" d="M233.232 52.0661L242.417 57.2727V53.8016L233.232 48.595V52.0661Z" fill="#42FFFF"/>
<path opacity="0.5" d="M236.086 61.6116L242.417 65.2066V61.7355L236.086 58.1405V61.6116Z" fill="#42FFFF"/>
<path opacity="0.5" d="M234.473 68.5537L242.417 73.1405V69.6694L234.473 65.0826V68.5537Z" fill="#42FFFF"/>
<path opacity="0.5" d="M238.073 78.595L242.417 81.0744V77.6033L238.073 75.124V78.595Z" fill="#42FFFF"/>
<path opacity="0.5" d="M233.976 84.1736L242.417 89.0083V85.5372L233.976 80.7025V84.1736Z" fill="#42FFFF"/>
<path opacity="0.5" d="M234.473 92.3554L242.417 96.9421V93.4711L234.473 88.8843V92.3554Z" fill="#42FFFF"/>
<path opacity="0.5" d="M204.062 74.8761L200.711 72.8926V69.4215L204.062 71.405V74.8761Z" fill="#42FFFF"/>
<path opacity="0.5" d="M213.992 80.5785L206.42 76.2397V72.7686L213.992 77.1075V80.5785Z" fill="#42FFFF"/>
<path opacity="0.5" d="M267.614 47.8512L251.726 38.8016V35.3306L267.614 44.3802V47.8512Z" fill="#42FFFF"/>
<path opacity="0.5" d="M275.682 52.562L269.973 49.3388V45.7438L275.682 49.0909V52.562Z" fill="#42FFFF"/>
<path d="M282.013 56.157L278.165 53.9256V50.4545L282.013 52.6859V56.157Z" fill="#42FFFF"/>
<path opacity="0.5" d="M260.415 51.6942L251.726 46.7355V43.2645L260.415 48.2231V51.6942Z" fill="#42FFFF"/>
<path opacity="0.5" d="M273.324 59.1323L262.773 53.0579V49.5868L273.324 55.6612V59.1323Z" fill="#42FFFF"/>
<path d="M279.655 62.7273L275.807 60.4959V57.0248L279.655 59.2562V62.7273Z" fill="#42FFFF"/>
<path opacity="0.5" d="M285.613 66.1983L281.765 63.9669V60.4958L285.613 62.7273V66.1983Z" fill="#42FFFF"/>
<path opacity="0.5" d="M258.057 58.2645L251.726 54.6694V51.1984L258.057 54.7934V58.2645Z" fill="#42FFFF"/>
<path opacity="0.5" d="M262.525 60.8678L260.415 59.6281V56.157L262.525 57.3967V60.8678Z" fill="#42FFFF"/>
<path opacity="0.5" d="M268.856 64.4628L265.008 62.2314V58.7603L268.856 60.9917V64.4628Z" fill="#42FFFF"/>
<path opacity="0.5" d="M274.814 75.8677L251.726 62.6033V59.1322L274.814 72.3967V75.8677Z" fill="#42FFFF"/>
<path opacity="0.5" d="M282.882 80.5785L277.172 77.2314V73.7603L282.882 77.1074V80.5785Z" fill="#42FFFF"/>
<path opacity="0.5" d="M258.057 74.1322L251.726 70.5372V67.0661L258.057 70.6611V74.1322Z" fill="#42FFFF"/>
<path opacity="0.5" d="M272.703 82.562L260.415 75.4959V72.0248L272.703 79.0909V82.562Z" fill="#42FFFF"/>
<path opacity="0.5" d="M278.91 86.157L275.062 83.9256V80.4545L278.91 82.6859V86.157Z" fill="#42FFFF"/>
<path d="M264.511 85.7851L251.726 78.4711V75L264.511 82.3141V85.7851Z" fill="#42FFFF"/>
<path opacity="0.5" d="M276.179 92.4793L266.994 87.1488V83.6777L276.179 89.0083V92.4793Z" fill="#42FFFF"/>
<path opacity="0.5" d="M284.868 97.562L278.662 93.9669V90.3719L284.868 94.0909V97.562Z" fill="#42FFFF"/>
<path opacity="0.5" d="M256.071 88.8843L251.726 86.405V82.9339L256.071 85.4132V88.8843Z" fill="#42FFFF"/>
<path opacity="0.5" d="M264.139 93.4711L258.429 90.2479V86.7769L264.139 90V93.4711Z" fill="#42FFFF"/>
<path d="M275.807 100.165L266.621 94.9587V91.4876L275.807 96.6942V100.165Z" fill="#42FFFF"/>
<path opacity="0.5" d="M265.008 101.901L251.726 94.3389V90.8678L265.008 98.4298V101.901Z" fill="#42FFFF"/>
<path opacity="0.5" d="M279.779 110.455L267.366 103.264V99.7934L279.779 106.983V110.455Z" fill="#42FFFF"/>
<path opacity="0.5" d="M286.109 114.05L282.137 111.818V108.347L286.109 110.579V114.05Z" fill="#42FFFF"/>
<path opacity="0.5" d="M292.067 117.521L288.219 115.289V111.818L292.067 114.05V117.521Z" fill="#42FFFF"/>
<path opacity="0.5" d="M259.67 106.736L251.726 102.273V98.8016L259.67 103.264V106.736Z" fill="#42FFFF"/>
<path d="M292.812 62.3554L303.735 68.8016V65.3306L292.812 58.8843V62.3554Z" fill="#42FFFF"/>
<path opacity="0.5" d="M295.17 71.6529L303.735 76.7355V73.2645L295.17 68.1818V71.6529Z" fill="#42FFFF"/>
<path opacity="0.5" d="M297.529 81.0744L303.735 84.6695V81.1984L297.529 77.4794V81.0744Z" fill="#42FFFF"/>
<path opacity="0.5" d="M294.674 87.2727L303.735 92.6033V89.1322L294.674 83.8016V87.2727Z" fill="#42FFFF"/>
<path opacity="0.5" d="M297.529 96.9421L303.735 100.537V97.0661L297.529 93.4711V96.9421Z" fill="#42FFFF"/>
<path opacity="0.5" d="M295.915 103.884L303.735 108.471V105L295.915 100.413V103.884Z" fill="#42FFFF"/>
<path opacity="0.5" d="M299.515 113.926L303.735 116.405V112.934L299.515 110.331V113.926Z" fill="#42FFFF"/>
<path opacity="0.5" d="M295.418 119.504L303.735 124.339V120.868L295.418 116.033V119.504Z" fill="#42FFFF"/>
<path opacity="0.5" d="M295.915 127.686L303.735 132.273V128.802L295.915 124.215V127.686Z" fill="#42FFFF"/>
<path d="M265.504 110.083L262.153 108.223V104.752L265.504 106.612V110.083Z" fill="#42FFFF"/>
<path opacity="0.5" d="M275.434 115.909L267.863 111.57V108.099L275.434 112.438V115.909Z" fill="#42FFFF"/>
<path opacity="0.5" d="M206.172 84.0496L190.284 74.876V71.405L206.172 80.5785V84.0496Z" fill="#42FFFF"/>
<path opacity="0.5" d="M214.24 88.7603L208.655 85.4132V81.9421L214.24 85.2893V88.7603Z" fill="#42FFFF"/>
<path opacity="0.5" d="M220.571 92.3554L216.723 90.124V86.6529L220.571 88.8843V92.3554Z" fill="#42FFFF"/>
<path opacity="0.5" d="M198.973 87.8926L190.284 82.8099V79.3389L198.973 84.4215V87.8926Z" fill="#42FFFF"/>
<path opacity="0.5" d="M212.006 95.3306L201.331 89.2562V85.7851L212.006 91.8595V95.3306Z" fill="#42FFFF"/>
<path opacity="0.5" d="M218.212 98.9256L214.365 96.6942V93.2231L218.212 95.4545V98.9256Z" fill="#42FFFF"/>
<path opacity="0.5" d="M224.295 102.397L220.323 100.165V96.6942L224.295 98.9256V102.397Z" fill="#42FFFF"/>
<path opacity="0.5" d="M196.615 94.4628L190.284 90.7438V87.2727L196.615 90.8678V94.4628Z" fill="#42FFFF"/>
<path opacity="0.5" d="M201.083 97.0661L198.973 95.8264V92.3553L201.083 93.595V97.0661Z" fill="#42FFFF"/>
<path opacity="0.5" d="M207.414 100.661L203.566 98.4298V94.9587L207.414 97.1901V100.661Z" fill="#42FFFF"/>
<path opacity="0.5" d="M213.372 112.066L190.284 98.6777V95.2066L213.372 108.595V112.066Z" fill="#42FFFF"/>
<path opacity="0.5" d="M221.564 116.653L215.854 113.43V109.959L221.564 113.182V116.653Z" fill="#42FFFF"/>
<path opacity="0.5" d="M196.615 110.331L190.284 106.612V103.141L196.615 106.86V110.331Z" fill="#42FFFF"/>
<path opacity="0.5" d="M211.261 118.76L198.973 111.694V108.223L211.261 115.289V118.76Z" fill="#42FFFF"/>
<path opacity="0.5" d="M217.592 122.355L213.62 120.124V116.653L217.592 118.884V122.355Z" fill="#42FFFF"/>
<path opacity="0.5" d="M203.069 121.983L190.284 114.545V111.074L203.069 118.512V121.983Z" fill="#42FFFF"/>
<path opacity="0.5" d="M214.737 128.678L205.552 123.347V119.876L214.737 125.207V128.678Z" fill="#42FFFF"/>
<path opacity="0.5" d="M223.426 133.636L217.219 130.041V126.57L223.426 130.165V133.636Z" fill="#42FFFF"/>
<path opacity="0.5" d="M194.629 125.083L190.284 122.603V119.008L194.629 121.612V125.083Z" fill="#42FFFF"/>
<path opacity="0.5" d="M202.821 129.669L197.111 126.446V122.975L202.821 126.198V129.669Z" fill="#42FFFF"/>
<path opacity="0.5" d="M214.364 136.364L205.179 131.157V127.686L214.364 132.893V136.364Z" fill="#42FFFF"/>
<path opacity="0.5" d="M203.566 138.099L190.284 130.537V126.942L203.566 134.628V138.099Z" fill="#42FFFF"/>
<path opacity="0.5" d="M218.337 146.653L205.924 139.463V135.992L218.337 143.182V146.653Z" fill="#42FFFF"/>
<path opacity="0.5" d="M224.667 150.248L220.819 148.017V144.545L224.667 146.777V150.248Z" fill="#42FFFF"/>
<path opacity="0.5" d="M230.749 153.719L226.777 151.488V148.017L230.749 150.248V153.719Z" fill="#42FFFF"/>
<path opacity="0.5" d="M198.228 142.934L190.284 138.471V135L198.228 139.463V142.934Z" fill="#42FFFF"/>
<path opacity="0.5" d="M231.37 98.5537L242.417 104.876V101.405L231.37 95.0826V98.5537Z" fill="#42FFFF"/>
<path opacity="0.5" d="M233.728 107.851L242.417 112.81V109.339L233.728 104.38V107.851Z" fill="#42FFFF"/>
<path opacity="0.5" d="M236.086 117.149L242.417 120.744V117.273L236.086 113.678V117.149Z" fill="#42FFFF"/>
<path opacity="0.5" d="M233.232 123.471L242.417 128.678V125.207L233.232 120V123.471Z" fill="#42FFFF"/>
<path opacity="0.5" d="M236.086 133.017L242.417 136.612V133.141L236.086 129.545V133.017Z" fill="#42FFFF"/>
<path opacity="0.5" d="M234.473 140.083L242.417 144.545V141.074L234.473 136.612V140.083Z" fill="#42FFFF"/>
<path opacity="0.5" d="M238.073 150L242.417 152.479V149.008L238.073 146.529V150Z" fill="#42FFFF"/>
<path opacity="0.5" d="M233.976 155.703L242.417 160.413V156.942L233.976 152.231V155.703Z" fill="#42FFFF"/>
<path opacity="0.5" d="M234.473 163.884L242.417 168.347V164.876L234.473 160.413V163.884Z" fill="#42FFFF"/>
<path opacity="0.5" d="M204.062 146.281L200.711 144.422V140.95L204.062 142.81V146.281Z" fill="#42FFFF"/>
<path opacity="0.5" d="M213.992 152.107L206.42 147.769V144.298L213.992 148.636V152.107Z" fill="#42FFFF"/>
<path opacity="0.5" d="M220.323 178.76L207.538 171.446V167.975L220.323 175.289V178.76Z" fill="#42FFFF"/>
<path opacity="0.5" d="M229.136 183.843L224.046 180.868V177.397L229.136 180.372V183.843Z" fill="#42FFFF"/>
<path opacity="0.5" d="M267.614 119.38L251.726 110.207V106.736L267.614 115.909V119.38Z" fill="#42FFFF"/>
<path opacity="0.5" d="M275.682 123.967L269.973 120.744V117.273L275.682 120.496V123.967Z" fill="#42FFFF"/>
<path opacity="0.5" d="M282.013 127.686L278.165 125.455V121.983L282.013 124.215V127.686Z" fill="#42FFFF"/>
<path opacity="0.5" d="M260.415 123.099L251.726 118.141V114.669L260.415 119.628V123.099Z" fill="#42FFFF"/>
<path opacity="0.5" d="M273.324 130.661L262.773 124.463V120.992L273.324 127.19V130.661Z" fill="#42FFFF"/>
<path opacity="0.5" d="M279.655 134.256L275.807 132.025V128.554L279.655 130.785V134.256Z" fill="#42FFFF"/>
<path opacity="0.5" d="M285.613 137.727L281.765 135.496V132.025L285.613 134.256V137.727Z" fill="#42FFFF"/>
<path opacity="0.5" d="M258.057 129.669L251.726 126.074V122.603L258.057 126.198V129.669Z" fill="#42FFFF"/>
<path opacity="0.5" d="M262.525 132.273L260.415 131.033V127.562L262.525 128.802V132.273Z" fill="#42FFFF"/>
<path opacity="0.5" d="M268.856 135.992L265.008 133.76V130.165L268.856 132.521V135.992Z" fill="#42FFFF"/>
<path opacity="0.5" d="M274.814 147.273L251.726 134.008V130.537L274.814 143.802V147.273Z" fill="#42FFFF"/>
<path opacity="0.5" d="M282.882 151.983L277.172 148.636V145.165L282.882 148.512V151.983Z" fill="#42FFFF"/>
<path opacity="0.5" d="M258.057 145.537L251.726 141.942V138.471L258.057 142.066V145.537Z" fill="#42FFFF"/>
<path opacity="0.5" d="M272.703 153.967L260.415 146.901V143.43L272.703 150.496V153.967Z" fill="#42FFFF"/>
<path opacity="0.5" d="M278.91 157.686L275.062 155.455V151.859L278.91 154.215V157.686Z" fill="#42FFFF"/>
<path opacity="0.5" d="M264.511 157.19L251.726 149.876V146.405L264.511 153.719V157.19Z" fill="#42FFFF"/>
<path opacity="0.5" d="M276.179 164.008L266.994 158.678V155.207L276.179 160.537V164.008Z" fill="#42FFFF"/>
<path opacity="0.5" d="M284.868 168.967L278.662 165.372V161.901L284.868 165.496V168.967Z" fill="#42FFFF"/>
<path opacity="0.5" d="M256.071 160.289L251.726 157.81V154.339L256.071 156.818V160.289Z" fill="#42FFFF"/>
<path opacity="0.5" d="M264.139 165L258.429 161.653V158.182L264.139 161.529V165Z" fill="#42FFFF"/>
<path opacity="0.5" d="M275.807 171.694L266.621 166.364V162.893L275.807 168.223V171.694Z" fill="#42FFFF"/>
<path opacity="0.5" d="M265.008 173.43L251.726 165.744V162.273L265.008 169.959V173.43Z" fill="#42FFFF"/>
<path opacity="0.5" d="M279.779 181.86L267.366 174.793V171.322L279.779 178.388V181.86Z" fill="#42FFFF"/>
<path opacity="0.5" d="M286.109 185.579L282.137 183.347V179.876L286.109 182.107V185.579Z" fill="#42FFFF"/>
<path opacity="0.5" d="M292.067 189.05L288.219 186.818V183.347L292.067 185.579V189.05Z" fill="#42FFFF"/>
<path opacity="0.5" d="M259.67 178.264L251.726 173.678V170.207L259.67 174.793V178.264Z" fill="#42FFFF"/>
<path opacity="0.5" d="M292.812 133.884L303.735 140.207V136.736L292.812 130.413V133.884Z" fill="#42FFFF"/>
<path opacity="0.5" d="M295.17 143.182L303.735 148.141V144.669L295.17 139.711V143.182Z" fill="#42FFFF"/>
<path opacity="0.5" d="M297.529 152.479L303.735 156.074V152.603L297.529 149.008V152.479Z" fill="#42FFFF"/>
<path opacity="0.5" d="M294.674 158.802L303.735 164.008V160.537L294.674 155.331V158.802Z" fill="#42FFFF"/>
<path opacity="0.5" d="M297.529 168.347L303.735 171.942V168.471L297.529 164.876V168.347Z" fill="#42FFFF"/>
<path opacity="0.5" d="M295.915 175.289L303.735 179.876V176.405L295.915 171.818V175.289Z" fill="#42FFFF"/>
<path opacity="0.5" d="M299.515 185.331L303.735 187.81V184.339L299.515 181.859V185.331Z" fill="#42FFFF"/>
<path opacity="0.5" d="M295.418 190.909L303.735 195.744V192.273L295.418 187.438V190.909Z" fill="#42FFFF"/>
<path opacity="0.5" d="M295.915 199.091L303.735 203.678V200.207L295.915 195.62V199.091Z" fill="#42FFFF"/>
<path opacity="0.5" d="M265.504 181.612L262.153 179.628V176.157L265.504 178.141V181.612Z" fill="#42FFFF"/>
<path opacity="0.5" d="M275.434 187.314L267.863 182.975V179.504L275.434 183.843V187.314Z" fill="#42FFFF"/>
<path opacity="0.5" d="M281.765 214.091L268.98 206.653V203.182L281.765 210.62V214.091Z" fill="#42FFFF"/>
<path opacity="0.5" d="M290.453 219.05L285.489 216.198V212.727L290.453 215.579V219.05Z" fill="#42FFFF"/>
</g>
<defs>
<linearGradient id="paint0_linear_24_1123" x1="256.512" y1="364.718" x2="131.083" y2="144.562" gradientUnits="userSpaceOnUse">
<stop/>
<stop offset="0.0576268" stop-color="#292929"/>
<stop offset="0.1455" stop-color="#626262"/>
<stop offset="0.2308" stop-color="#919191"/>
<stop offset="0.3114" stop-color="#B6B6B6"/>
<stop offset="0.3863" stop-color="#D0D0D0"/>
<stop offset="0.4531" stop-color="#E0E0E0"/>
<stop offset="0.5054" stop-color="#E6E6E6"/>
<stop offset="0.5514" stop-color="#DEDEDE"/>
<stop offset="0.6211" stop-color="#C9C9C9"/>
<stop offset="0.7058" stop-color="#A7A7A7"/>
<stop offset="0.8025" stop-color="#777777"/>
<stop offset="0.9076" stop-color="#3B3B3B"/>
<stop offset="1"/>
</linearGradient>
<linearGradient id="paint1_linear_24_1123" x1="256.512" y1="364.718" x2="131.083" y2="144.562" gradientUnits="userSpaceOnUse">
<stop stop-color="#5778FF"/>
<stop offset="0.00965709" stop-color="#567CFF"/>
<stop offset="0.1262" stop-color="#4FABFF"/>
<stop offset="0.2375" stop-color="#49CFFF"/>
<stop offset="0.3408" stop-color="#45EAFF"/>
<stop offset="0.4332" stop-color="#43F9FF"/>
<stop offset="0.5054" stop-color="#42FFFF"/>
<stop offset="0.5719" stop-color="#43F7FF"/>
<stop offset="0.6727" stop-color="#46E3FF"/>
<stop offset="0.7952" stop-color="#4CC0FF"/>
<stop offset="0.9335" stop-color="#5391FF"/>
<stop offset="1" stop-color="#5778FF"/>
</linearGradient>
<linearGradient id="paint2_linear_24_1123" x1="228.698" y1="310.741" x2="163.333" y2="196.011" gradientUnits="userSpaceOnUse">
<stop/>
<stop offset="0.0576268" stop-color="#292929"/>
<stop offset="0.1455" stop-color="#626262"/>
<stop offset="0.2308" stop-color="#919191"/>
<stop offset="0.3114" stop-color="#B6B6B6"/>
<stop offset="0.3863" stop-color="#D0D0D0"/>
<stop offset="0.4531" stop-color="#E0E0E0"/>
<stop offset="0.5054" stop-color="#E6E6E6"/>
<stop offset="0.5514" stop-color="#DEDEDE"/>
<stop offset="0.6211" stop-color="#C9C9C9"/>
<stop offset="0.7058" stop-color="#A7A7A7"/>
<stop offset="0.8025" stop-color="#777777"/>
<stop offset="0.9076" stop-color="#3B3B3B"/>
<stop offset="1"/>
</linearGradient>
<linearGradient id="paint3_linear_24_1123" x1="228.698" y1="310.741" x2="163.333" y2="196.011" gradientUnits="userSpaceOnUse">
<stop stop-color="#5778FF"/>
<stop offset="0.00965709" stop-color="#567CFF"/>
<stop offset="0.1262" stop-color="#4FABFF"/>
<stop offset="0.2375" stop-color="#49CFFF"/>
<stop offset="0.3408" stop-color="#45EAFF"/>
<stop offset="0.4332" stop-color="#43F9FF"/>
<stop offset="0.5054" stop-color="#42FFFF"/>
<stop offset="0.5719" stop-color="#43F7FF"/>
<stop offset="0.6727" stop-color="#46E3FF"/>
<stop offset="0.7952" stop-color="#4CC0FF"/>
<stop offset="0.9335" stop-color="#5391FF"/>
<stop offset="1" stop-color="#5778FF"/>
</linearGradient>
<linearGradient id="paint4_linear_24_1123" x1="321.973" y1="327.423" x2="240.014" y2="183.566" gradientUnits="userSpaceOnUse">
<stop/>
<stop offset="0.0576268" stop-color="#292929"/>
<stop offset="0.1455" stop-color="#626262"/>
<stop offset="0.2308" stop-color="#919191"/>
<stop offset="0.3114" stop-color="#B6B6B6"/>
<stop offset="0.3863" stop-color="#D0D0D0"/>
<stop offset="0.4531" stop-color="#E0E0E0"/>
<stop offset="0.5054" stop-color="#E6E6E6"/>
<stop offset="0.5514" stop-color="#DEDEDE"/>
<stop offset="0.6211" stop-color="#C9C9C9"/>
<stop offset="0.7058" stop-color="#A7A7A7"/>
<stop offset="0.8025" stop-color="#777777"/>
<stop offset="0.9076" stop-color="#3B3B3B"/>
<stop offset="1"/>
</linearGradient>
<linearGradient id="paint5_linear_24_1123" x1="321.973" y1="327.423" x2="240.014" y2="183.566" gradientUnits="userSpaceOnUse">
<stop stop-color="#5778FF"/>
<stop offset="0.00965709" stop-color="#567CFF"/>
<stop offset="0.1262" stop-color="#4FABFF"/>
<stop offset="0.2375" stop-color="#49CFFF"/>
<stop offset="0.3408" stop-color="#45EAFF"/>
<stop offset="0.4332" stop-color="#43F9FF"/>
<stop offset="0.5054" stop-color="#42FFFF"/>
<stop offset="0.5719" stop-color="#43F7FF"/>
<stop offset="0.6727" stop-color="#46E3FF"/>
<stop offset="0.7952" stop-color="#4CC0FF"/>
<stop offset="0.9335" stop-color="#5391FF"/>
<stop offset="1" stop-color="#5778FF"/>
</linearGradient>
<linearGradient id="paint6_linear_24_1123" x1="354.707" y1="308.774" x2="195.413" y2="29.1784" gradientUnits="userSpaceOnUse">
<stop/>
<stop offset="0.0576268" stop-color="#292929"/>
<stop offset="0.1455" stop-color="#626262"/>
<stop offset="0.2308" stop-color="#919191"/>
<stop offset="0.3114" stop-color="#B6B6B6"/>
<stop offset="0.3863" stop-color="#D0D0D0"/>
<stop offset="0.4531" stop-color="#E0E0E0"/>
<stop offset="0.5054" stop-color="#E6E6E6"/>
<stop offset="0.5514" stop-color="#DEDEDE"/>
<stop offset="0.6211" stop-color="#C9C9C9"/>
<stop offset="0.7058" stop-color="#A7A7A7"/>
<stop offset="0.8025" stop-color="#777777"/>
<stop offset="0.9076" stop-color="#3B3B3B"/>
<stop offset="1"/>
</linearGradient>
<linearGradient id="paint7_linear_24_1123" x1="354.707" y1="308.774" x2="195.413" y2="29.1784" gradientUnits="userSpaceOnUse">
<stop stop-color="#5778FF"/>
<stop offset="0.00965709" stop-color="#567CFF"/>
<stop offset="0.1262" stop-color="#4FABFF"/>
<stop offset="0.2375" stop-color="#49CFFF"/>
<stop offset="0.3408" stop-color="#45EAFF"/>
<stop offset="0.4332" stop-color="#43F9FF"/>
<stop offset="0.5054" stop-color="#42FFFF"/>
<stop offset="0.5719" stop-color="#43F7FF"/>
<stop offset="0.6727" stop-color="#46E3FF"/>
<stop offset="0.7952" stop-color="#4CC0FF"/>
<stop offset="0.9335" stop-color="#5391FF"/>
<stop offset="1" stop-color="#5778FF"/>
</linearGradient>
<linearGradient id="paint8_linear_24_1123" x1="475.34" y1="269.887" x2="316.046" y2="-9.70789" gradientUnits="userSpaceOnUse">
<stop/>
<stop offset="0.0576268" stop-color="#292929"/>
<stop offset="0.1455" stop-color="#626262"/>
<stop offset="0.2308" stop-color="#919191"/>
<stop offset="0.3114" stop-color="#B6B6B6"/>
<stop offset="0.3863" stop-color="#D0D0D0"/>
<stop offset="0.4531" stop-color="#E0E0E0"/>
<stop offset="0.5054" stop-color="#E6E6E6"/>
<stop offset="0.5514" stop-color="#DEDEDE"/>
<stop offset="0.6211" stop-color="#C9C9C9"/>
<stop offset="0.7058" stop-color="#A7A7A7"/>
<stop offset="0.8025" stop-color="#777777"/>
<stop offset="0.9076" stop-color="#3B3B3B"/>
<stop offset="1"/>
</linearGradient>
<linearGradient id="paint9_linear_24_1123" x1="475.34" y1="269.887" x2="316.046" y2="-9.70789" gradientUnits="userSpaceOnUse">
<stop stop-color="#5778FF"/>
<stop offset="0.00965709" stop-color="#567CFF"/>
<stop offset="0.1262" stop-color="#4FABFF"/>
<stop offset="0.2375" stop-color="#49CFFF"/>
<stop offset="0.3408" stop-color="#45EAFF"/>
<stop offset="0.4332" stop-color="#43F9FF"/>
<stop offset="0.5054" stop-color="#42FFFF"/>
<stop offset="0.5719" stop-color="#43F7FF"/>
<stop offset="0.6727" stop-color="#46E3FF"/>
<stop offset="0.7952" stop-color="#4CC0FF"/>
<stop offset="0.9335" stop-color="#5391FF"/>
<stop offset="1" stop-color="#5778FF"/>
</linearGradient>
<linearGradient id="paint10_linear_24_1123" x1="431.184" y1="207.976" x2="271.89" y2="-71.6193" gradientUnits="userSpaceOnUse">
<stop/>
<stop offset="0.0576268" stop-color="#292929"/>
<stop offset="0.1455" stop-color="#626262"/>
<stop offset="0.2308" stop-color="#919191"/>
<stop offset="0.3114" stop-color="#B6B6B6"/>
<stop offset="0.3863" stop-color="#D0D0D0"/>
<stop offset="0.4531" stop-color="#E0E0E0"/>
<stop offset="0.5054" stop-color="#E6E6E6"/>
<stop offset="0.5514" stop-color="#DEDEDE"/>
<stop offset="0.6211" stop-color="#C9C9C9"/>
<stop offset="0.7058" stop-color="#A7A7A7"/>
<stop offset="0.8025" stop-color="#777777"/>
<stop offset="0.9076" stop-color="#3B3B3B"/>
<stop offset="1"/>
</linearGradient>
<linearGradient id="paint11_linear_24_1123" x1="431.184" y1="207.976" x2="271.89" y2="-71.6193" gradientUnits="userSpaceOnUse">
<stop stop-color="#5778FF"/>
<stop offset="0.00965709" stop-color="#567CFF"/>
<stop offset="0.1262" stop-color="#4FABFF"/>
<stop offset="0.2375" stop-color="#49CFFF"/>
<stop offset="0.3408" stop-color="#45EAFF"/>
<stop offset="0.4332" stop-color="#43F9FF"/>
<stop offset="0.5054" stop-color="#42FFFF"/>
<stop offset="0.5719" stop-color="#43F7FF"/>
<stop offset="0.6727" stop-color="#46E3FF"/>
<stop offset="0.7952" stop-color="#4CC0FF"/>
<stop offset="0.9335" stop-color="#5391FF"/>
<stop offset="1" stop-color="#5778FF"/>
</linearGradient>
<linearGradient id="paint12_linear_24_1123" x1="387.437" y1="290.126" x2="252.052" y2="52.4949" gradientUnits="userSpaceOnUse">
<stop/>
<stop offset="0.0576268" stop-color="#292929"/>
<stop offset="0.1455" stop-color="#626262"/>
<stop offset="0.2308" stop-color="#919191"/>
<stop offset="0.3114" stop-color="#B6B6B6"/>
<stop offset="0.3863" stop-color="#D0D0D0"/>
<stop offset="0.4531" stop-color="#E0E0E0"/>
<stop offset="0.5054" stop-color="#E6E6E6"/>
<stop offset="0.5514" stop-color="#DEDEDE"/>
<stop offset="0.6211" stop-color="#C9C9C9"/>
<stop offset="0.7058" stop-color="#A7A7A7"/>
<stop offset="0.8025" stop-color="#777777"/>
<stop offset="0.9076" stop-color="#3B3B3B"/>
<stop offset="1"/>
</linearGradient>
<linearGradient id="paint13_linear_24_1123" x1="387.437" y1="290.126" x2="252.052" y2="52.4949" gradientUnits="userSpaceOnUse">
<stop stop-color="#5778FF"/>
<stop offset="0.00965709" stop-color="#567CFF"/>
<stop offset="0.1262" stop-color="#4FABFF"/>
<stop offset="0.2375" stop-color="#49CFFF"/>
<stop offset="0.3408" stop-color="#45EAFF"/>
<stop offset="0.4332" stop-color="#43F9FF"/>
<stop offset="0.5054" stop-color="#42FFFF"/>
<stop offset="0.5719" stop-color="#43F7FF"/>
<stop offset="0.6727" stop-color="#46E3FF"/>
<stop offset="0.7952" stop-color="#4CC0FF"/>
<stop offset="0.9335" stop-color="#5391FF"/>
<stop offset="1" stop-color="#5778FF"/>
</linearGradient>
<linearGradient id="paint14_linear_24_1123" x1="281.242" y1="190.411" x2="224.725" y2="91.2118" gradientUnits="userSpaceOnUse">
<stop/>
<stop offset="0.0576268" stop-color="#292929"/>
<stop offset="0.1455" stop-color="#626262"/>
<stop offset="0.2308" stop-color="#919191"/>
<stop offset="0.3114" stop-color="#B6B6B6"/>
<stop offset="0.3863" stop-color="#D0D0D0"/>
<stop offset="0.4531" stop-color="#E0E0E0"/>
<stop offset="0.5054" stop-color="#E6E6E6"/>
<stop offset="0.5514" stop-color="#DEDEDE"/>
<stop offset="0.6211" stop-color="#C9C9C9"/>
<stop offset="0.7058" stop-color="#A7A7A7"/>
<stop offset="0.8025" stop-color="#777777"/>
<stop offset="0.9076" stop-color="#3B3B3B"/>
<stop offset="1"/>
</linearGradient>
<linearGradient id="paint15_linear_24_1123" x1="281.242" y1="190.411" x2="224.725" y2="91.2118" gradientUnits="userSpaceOnUse">
<stop stop-color="#5778FF"/>
<stop offset="0.00965709" stop-color="#567CFF"/>
<stop offset="0.1262" stop-color="#4FABFF"/>
<stop offset="0.2375" stop-color="#49CFFF"/>
<stop offset="0.3408" stop-color="#45EAFF"/>
<stop offset="0.4332" stop-color="#43F9FF"/>
<stop offset="0.5054" stop-color="#42FFFF"/>
<stop offset="0.5719" stop-color="#43F7FF"/>
<stop offset="0.6727" stop-color="#46E3FF"/>
<stop offset="0.7952" stop-color="#4CC0FF"/>
<stop offset="0.9335" stop-color="#5391FF"/>
<stop offset="1" stop-color="#5778FF"/>
</linearGradient>
<linearGradient id="paint16_linear_24_1123" x1="328.241" y1="290.098" x2="37.391" y2="290.098" gradientUnits="userSpaceOnUse">
<stop stop-color="#42FFFF"/>
<stop offset="0.1507" stop-color="#43FAFF"/>
<stop offset="0.3285" stop-color="#45ECFF"/>
<stop offset="0.5199" stop-color="#49D4FF"/>
<stop offset="0.7209" stop-color="#4EB3FF"/>
<stop offset="0.9274" stop-color="#5489FF"/>
<stop offset="1" stop-color="#5778FF"/>
</linearGradient>
<linearGradient id="paint17_linear_24_1123" x1="366.93" y1="150.667" x2="146.463" y2="150.667" gradientUnits="userSpaceOnUse">
<stop stop-color="#C0D6FF"/>
<stop offset="0.2978" stop-color="#C5DBFF"/>
<stop offset="0.6488" stop-color="#D3E9FF"/>
<stop offset="1" stop-color="#E9FFFF"/>
</linearGradient>
<linearGradient id="paint18_linear_24_1123" x1="366.929" y1="207.135" x2="329.072" y2="207.135" gradientUnits="userSpaceOnUse">
<stop stop-color="#5778FF"/>
<stop offset="0.1779" stop-color="#5C7DFF"/>
<stop offset="0.3876" stop-color="#6A8AFF"/>
<stop offset="0.6134" stop-color="#82A0FF"/>
<stop offset="0.849" stop-color="#A3BEFF"/>
<stop offset="1" stop-color="#BCD5FF"/>
</linearGradient>
<linearGradient id="paint19_linear_24_1123" x1="337.392" y1="270.611" x2="26.0211" y2="270.611" gradientUnits="userSpaceOnUse">
<stop stop-color="#5778FF"/>
<stop offset="0.1779" stop-color="#5C7DFF"/>
<stop offset="0.3876" stop-color="#6A8AFF"/>
<stop offset="0.6134" stop-color="#82A0FF"/>
<stop offset="0.849" stop-color="#A3BEFF"/>
<stop offset="1" stop-color="#BCD5FF"/>
</linearGradient>
<linearGradient id="paint20_linear_24_1123" x1="232.77" y1="260.242" x2="-78.7666" y2="260.242" gradientUnits="userSpaceOnUse">
<stop stop-color="#C0D6FF"/>
<stop offset="0.2978" stop-color="#C5DBFF"/>
<stop offset="0.6488" stop-color="#D3E9FF"/>
<stop offset="1" stop-color="#E9FFFF"/>
</linearGradient>
<linearGradient id="paint21_linear_24_1123" x1="180.012" y1="277.905" x2="100.267" y2="277.905" gradientUnits="userSpaceOnUse">
<stop stop-color="#C0D6FF"/>
<stop offset="0.2978" stop-color="#C5DBFF"/>
<stop offset="0.6488" stop-color="#D3E9FF"/>
<stop offset="1" stop-color="#E9FFFF"/>
</linearGradient>
<linearGradient id="paint22_linear_24_1123" x1="351.796" y1="191.279" x2="40.2586" y2="191.279" gradientUnits="userSpaceOnUse">
<stop stop-color="#C0D6FF"/>
<stop offset="0.2978" stop-color="#C5DBFF"/>
<stop offset="0.6488" stop-color="#D3E9FF"/>
<stop offset="1" stop-color="#E9FFFF"/>
</linearGradient>
<linearGradient id="paint23_linear_24_1123" x1="372.3" y1="168.439" x2="292.555" y2="168.439" gradientUnits="userSpaceOnUse">
<stop stop-color="#C0D6FF"/>
<stop offset="0.2978" stop-color="#C5DBFF"/>
<stop offset="0.6488" stop-color="#D3E9FF"/>
<stop offset="1" stop-color="#E9FFFF"/>
</linearGradient>
<clipPath id="clip0_24_1123">
<rect width="479" height="375" fill="white"/>
</clipPath>
</defs>
</svg>
